G04*
G04 #@! TF.GenerationSoftware,Altium Limited,Altium Designer,21.3.2 (30)*
G04*
G04 Layer_Color=2752767*
%FSTAX24Y24*%
%MOIN*%
G70*
G04*
G04 #@! TF.SameCoordinates,FD8D8422-8178-4DE3-8D18-A0C0927E7843*
G04*
G04*
G04 #@! TF.FilePolarity,Positive*
G04*
G01*
G75*
%ADD63C,0.0020*%
%ADD64C,0.0027*%
%ADD65C,0.0013*%
D63*
X02867Y01992D02*
Y02008D01*
X02883D01*
Y01992D01*
X02867D01*
X06022Y01987D02*
Y02003D01*
X06038D01*
Y01987D01*
X06022D01*
X06002Y04287D02*
Y04303D01*
X06018D01*
Y04287D01*
X06002D01*
X02857Y04302D02*
Y04318D01*
X02873D01*
Y04302D01*
X02857D01*
X035478Y0323D02*
X035398Y03246D01*
X035558D01*
X035478Y0323D01*
Y03132D02*
X035398Y03148D01*
X035558D01*
X035478Y03132D01*
Y03031D02*
X035398Y03047D01*
X035558D01*
X035478Y03031D01*
X03305Y0323D02*
X03297Y03246D01*
X03313D01*
X03305Y0323D01*
Y03132D02*
X03297Y03148D01*
X03313D01*
X03305Y03132D01*
Y03031D02*
X03297Y03047D01*
X03313D01*
X03305Y03031D01*
X0331Y03662D02*
X03314Y03666D01*
X03318D01*
X03314Y0367D01*
X03318Y03674D01*
X03314D01*
X0331Y03678D01*
X03306Y03674D01*
X03302D01*
X03306Y0367D01*
X03302Y03666D01*
X03306D01*
X0331Y03662D01*
Y03562D02*
X03314Y03566D01*
X03318D01*
X03314Y0357D01*
X03318Y03574D01*
X03314D01*
X0331Y03578D01*
X03306Y03574D01*
X03302D01*
X03306Y0357D01*
X03302Y03566D01*
X03306D01*
X0331Y03562D01*
Y03462D02*
X03314Y03466D01*
X03318D01*
X03314Y0347D01*
X03318Y03474D01*
X03314D01*
X0331Y03478D01*
X03306Y03474D01*
X03302D01*
X03306Y0347D01*
X03302Y03466D01*
X03306D01*
X0331Y03462D01*
X035603Y03667D02*
X035643Y03671D01*
X035683D01*
X035643Y03675D01*
X035683Y03679D01*
X035643D01*
X035603Y03683D01*
X035563Y03679D01*
X035523D01*
X035563Y03675D01*
X035523Y03671D01*
X035563D01*
X035603Y03667D01*
Y03567D02*
X035643Y03571D01*
X035683D01*
X035643Y03575D01*
X035683Y03579D01*
X035643D01*
X035603Y03583D01*
X035563Y03579D01*
X035523D01*
X035563Y03575D01*
X035523Y03571D01*
X035563D01*
X035603Y03567D01*
Y03467D02*
X035643Y03471D01*
X035683D01*
X035643Y03475D01*
X035683Y03479D01*
X035643D01*
X035603Y03483D01*
X035563Y03479D01*
X035523D01*
X035563Y03475D01*
X035523Y03471D01*
X035563D01*
X035603Y03467D01*
X03022Y03212D02*
X03026Y0322D01*
X03022Y03228D01*
X0303Y03224D01*
X03038Y03228D01*
X03034Y0322D01*
X03038Y03212D01*
X0303Y03216D01*
X03022Y03212D01*
Y03312D02*
X03026Y0332D01*
X03022Y03328D01*
X0303Y03324D01*
X03038Y03328D01*
X03034Y0332D01*
X03038Y03312D01*
X0303Y03316D01*
X03022Y03312D01*
Y03412D02*
X03026Y0342D01*
X03022Y03428D01*
X0303Y03424D01*
X03038Y03428D01*
X03034Y0342D01*
X03038Y03412D01*
X0303Y03416D01*
X03022Y03412D01*
X05081Y040685D02*
Y040645D01*
X05089D01*
Y040685D01*
X05093D01*
Y040765D01*
X05089D01*
Y040805D01*
X05081D01*
Y040765D01*
X05077D01*
Y040685D01*
X05081D01*
X05901D02*
Y040645D01*
X05909D01*
Y040685D01*
X05913D01*
Y040765D01*
X05909D01*
Y040805D01*
X05901D01*
Y040765D01*
X05897D01*
Y040685D01*
X05901D01*
Y031585D02*
Y031545D01*
X05909D01*
Y031585D01*
X05913D01*
Y031665D01*
X05909D01*
Y031705D01*
X05901D01*
Y031665D01*
X05897D01*
Y031585D01*
X05901D01*
X05081D02*
Y031545D01*
X05089D01*
Y031585D01*
X05093D01*
Y031665D01*
X05089D01*
Y031705D01*
X05081D01*
Y031665D01*
X05077D01*
Y031585D01*
X05081D01*
X05337Y041095D02*
X05341D01*
X05345Y041135D01*
X05349Y041095D01*
X05353D01*
Y041135D01*
X05349Y041175D01*
X05353Y041215D01*
Y041255D01*
X05349D01*
X05345Y041215D01*
X05341Y041255D01*
X05337D01*
Y041215D01*
X05341Y041175D01*
X05337Y041135D01*
Y041095D01*
X05437D02*
X05441D01*
X05445Y041135D01*
X05449Y041095D01*
X05453D01*
Y041135D01*
X05449Y041175D01*
X05453Y041215D01*
Y041255D01*
X05449D01*
X05445Y041215D01*
X05441Y041255D01*
X05437D01*
Y041215D01*
X05441Y041175D01*
X05437Y041135D01*
Y041095D01*
X05537D02*
X05541D01*
X05545Y041135D01*
X05549Y041095D01*
X05553D01*
Y041135D01*
X05549Y041175D01*
X05553Y041215D01*
Y041255D01*
X05549D01*
X05545Y041215D01*
X05541Y041255D01*
X05537D01*
Y041215D01*
X05541Y041175D01*
X05537Y041135D01*
Y041095D01*
X05637D02*
X05641D01*
X05645Y041135D01*
X05649Y041095D01*
X05653D01*
Y041135D01*
X05649Y041175D01*
X05653Y041215D01*
Y041255D01*
X05649D01*
X05645Y041215D01*
X05641Y041255D01*
X05637D01*
Y041215D01*
X05641Y041175D01*
X05637Y041135D01*
Y041095D01*
X05022Y0356D02*
X0503Y03568D01*
X05038Y0356D01*
X0503Y03552D01*
X05022Y0356D01*
Y0391D02*
X0503Y03918D01*
X05038Y0391D01*
X0503Y03902D01*
X05022Y0391D01*
X04987Y02222D02*
Y02238D01*
X05003D01*
Y02222D01*
X04987D01*
X04991Y02226D02*
Y02234D01*
X04999D01*
Y02226D01*
X04991D01*
X04987Y02322D02*
Y02338D01*
X05003D01*
Y02322D01*
X04987D01*
X04991Y02326D02*
Y02334D01*
X04999D01*
Y02326D01*
X04991D01*
X05227Y02222D02*
Y02238D01*
X05243D01*
Y02222D01*
X05227D01*
X05231Y02226D02*
Y02234D01*
X05239D01*
Y02226D01*
X05231D01*
X05227Y02322D02*
Y02338D01*
X05243D01*
Y02322D01*
X05227D01*
X05231Y02326D02*
Y02334D01*
X05239D01*
Y02326D01*
X05231D01*
X05204Y0356D02*
X05212Y03568D01*
X0522Y0356D01*
X05212Y03552D01*
X05204Y0356D01*
Y0391D02*
X05212Y03918D01*
X0522Y0391D01*
X05212Y03902D01*
X05204Y0391D01*
X05568Y0356D02*
X05576Y03568D01*
X05584Y0356D01*
X05576Y03552D01*
X05568Y0356D01*
Y0391D02*
X05576Y03918D01*
X05584Y0391D01*
X05576Y03902D01*
X05568Y0391D01*
X05386Y0356D02*
X05394Y03568D01*
X05402Y0356D01*
X05394Y03552D01*
X05386Y0356D01*
Y0391D02*
X05394Y03918D01*
X05402Y0391D01*
X05394Y03902D01*
X05386Y0391D01*
X05467Y02222D02*
Y02238D01*
X05483D01*
Y02222D01*
X05467D01*
X05471Y02226D02*
Y02234D01*
X05479D01*
Y02226D01*
X05471D01*
X05467Y02322D02*
Y02338D01*
X05483D01*
Y02322D01*
X05467D01*
X05471Y02326D02*
Y02334D01*
X05479D01*
Y02326D01*
X05471D01*
X05707Y02222D02*
Y02238D01*
X05723D01*
Y02222D01*
X05707D01*
X05711Y02226D02*
Y02234D01*
X05719D01*
Y02226D01*
X05711D01*
X05707Y02322D02*
Y02338D01*
X05723D01*
Y02322D01*
X05707D01*
X05711Y02326D02*
Y02334D01*
X05719D01*
Y02326D01*
X05711D01*
X0575Y0356D02*
X05758Y03568D01*
X05766Y0356D01*
X05758Y03552D01*
X0575Y0356D01*
Y0391D02*
X05758Y03918D01*
X05766Y0391D01*
X05758Y03902D01*
X0575Y0391D01*
X04115Y026461D02*
X04107Y026621D01*
X04123D01*
X04115Y026461D01*
Y026501D02*
X04111Y026581D01*
X04119D01*
X04115Y026501D01*
Y030579D02*
X04107Y030739D01*
X04123D01*
X04115Y030579D01*
Y030619D02*
X04111Y030699D01*
X04119D01*
X04115Y030619D01*
X05932Y0356D02*
X0594Y03568D01*
X05948Y0356D01*
X0594Y03552D01*
X05932Y0356D01*
Y0391D02*
X0594Y03918D01*
X05948Y0391D01*
X0594Y03902D01*
X05932Y0391D01*
X04717Y04077D02*
X04721Y04081D01*
X04725D01*
X04721Y04085D01*
X04725Y04089D01*
X04721D01*
X04717Y04093D01*
X04713Y04089D01*
X04709D01*
X04713Y04085D01*
X04709Y04081D01*
X04713D01*
X04717Y04077D01*
Y04081D02*
X04719Y04083D01*
X04721D01*
X04719Y04085D01*
X04721Y04087D01*
X04719D01*
X04717Y04089D01*
X04715Y04087D01*
X04713D01*
X04715Y04085D01*
X04713Y04083D01*
X04715D01*
X04717Y04081D01*
X047387Y02222D02*
X047427Y02226D01*
X047467D01*
X047427Y0223D01*
X047467Y02234D01*
X047427D01*
X047387Y02238D01*
X047347Y02234D01*
X047307D01*
X047347Y0223D01*
X047307Y02226D01*
X047347D01*
X047387Y02222D01*
Y02226D02*
X047407Y02228D01*
X047427D01*
X047407Y0223D01*
X047427Y02232D01*
X047407D01*
X047387Y02234D01*
X047367Y02232D01*
X047347D01*
X047367Y0223D01*
X047347Y02228D01*
X047367D01*
X047387Y02226D01*
X044231Y022907D02*
X044271Y022947D01*
X044311D01*
X044271Y022987D01*
X044311Y023027D01*
X044271D01*
X044231Y023067D01*
X044191Y023027D01*
X044151D01*
X044191Y022987D01*
X044151Y022947D01*
X044191D01*
X044231Y022907D01*
Y022947D02*
X044251Y022967D01*
X044271D01*
X044251Y022987D01*
X044271Y023007D01*
X044251D01*
X044231Y023027D01*
X044211Y023007D01*
X044191D01*
X044211Y022987D01*
X044191Y022967D01*
X044211D01*
X044231Y022947D01*
X03413Y0315D02*
X03417Y03154D01*
X03421D01*
X03417Y03158D01*
X03421Y03162D01*
X03417D01*
X03413Y03166D01*
X03409Y03162D01*
X03405D01*
X03409Y03158D01*
X03405Y03154D01*
X03409D01*
X03413Y0315D01*
Y03154D02*
X03415Y03156D01*
X03417D01*
X03415Y03158D01*
X03417Y0316D01*
X03415D01*
X03413Y03162D01*
X03411Y0316D01*
X03409D01*
X03411Y03158D01*
X03409Y03156D01*
X03411D01*
X03413Y03154D01*
X03709Y04117D02*
X03713Y04121D01*
X03717D01*
X03713Y04125D01*
X03717Y04129D01*
X03713D01*
X03709Y04133D01*
X03705Y04129D01*
X03701D01*
X03705Y04125D01*
X03701Y04121D01*
X03705D01*
X03709Y04117D01*
Y04121D02*
X03711Y04123D01*
X03713D01*
X03711Y04125D01*
X03713Y04127D01*
X03711D01*
X03709Y04129D01*
X03707Y04127D01*
X03705D01*
X03707Y04125D01*
X03705Y04123D01*
X03707D01*
X03709Y04121D01*
X05217Y03389D02*
X05221Y03393D01*
X05225D01*
X05221Y03397D01*
X05225Y03401D01*
X05221D01*
X05217Y03405D01*
X05213Y03401D01*
X05209D01*
X05213Y03397D01*
X05209Y03393D01*
X05213D01*
X05217Y03389D01*
Y03393D02*
X05219Y03395D01*
X05221D01*
X05219Y03397D01*
X05221Y03399D01*
X05219D01*
X05217Y03401D01*
X05215Y03399D01*
X05213D01*
X05215Y03397D01*
X05213Y03395D01*
X05215D01*
X05217Y03393D01*
X03525Y03315D02*
X03529Y03319D01*
X03533D01*
X03529Y03323D01*
X03533Y03327D01*
X03529D01*
X03525Y03331D01*
X03521Y03327D01*
X03517D01*
X03521Y03323D01*
X03517Y03319D01*
X03521D01*
X03525Y03315D01*
Y03319D02*
X03527Y03321D01*
X03529D01*
X03527Y03323D01*
X03529Y03325D01*
X03527D01*
X03525Y03327D01*
X03523Y03325D01*
X03521D01*
X03523Y03323D01*
X03521Y03321D01*
X03523D01*
X03525Y03319D01*
X05052Y02505D02*
X05056Y02509D01*
X0506D01*
X05056Y02513D01*
X0506Y02517D01*
X05056D01*
X05052Y02521D01*
X05048Y02517D01*
X05044D01*
X05048Y02513D01*
X05044Y02509D01*
X05048D01*
X05052Y02505D01*
Y02509D02*
X05054Y02511D01*
X05056D01*
X05054Y02513D01*
X05056Y02515D01*
X05054D01*
X05052Y02517D01*
X0505Y02515D01*
X05048D01*
X0505Y02513D01*
X05048Y02511D01*
X0505D01*
X05052Y02509D01*
X05847Y02888D02*
X05851Y02892D01*
X05855D01*
X05851Y02896D01*
X05855Y029D01*
X05851D01*
X05847Y02904D01*
X05843Y029D01*
X05839D01*
X05843Y02896D01*
X05839Y02892D01*
X05843D01*
X05847Y02888D01*
Y02892D02*
X05849Y02894D01*
X05851D01*
X05849Y02896D01*
X05851Y02898D01*
X05849D01*
X05847Y029D01*
X05845Y02898D01*
X05843D01*
X05845Y02896D01*
X05843Y02894D01*
X05845D01*
X05847Y02892D01*
X05808Y02512D02*
X05812Y02516D01*
X05816D01*
X05812Y0252D01*
X05816Y02524D01*
X05812D01*
X05808Y02528D01*
X05804Y02524D01*
X058D01*
X05804Y0252D01*
X058Y02516D01*
X05804D01*
X05808Y02512D01*
Y02516D02*
X0581Y02518D01*
X05812D01*
X0581Y0252D01*
X05812Y02522D01*
X0581D01*
X05808Y02524D01*
X05806Y02522D01*
X05804D01*
X05806Y0252D01*
X05804Y02518D01*
X05806D01*
X05808Y02516D01*
D64*
X030867Y04051D02*
G03*
X030867Y04051I-00008J0D01*
G01*
Y038542D02*
G03*
X030867Y038542I-00008J0D01*
G01*
X04998Y027D02*
G03*
X04998Y027I-00008J0D01*
G01*
X05098D02*
G03*
X05098Y027I-00008J0D01*
G01*
X034043Y0399D02*
G03*
X034043Y0399I-00008J0D01*
G01*
X035417D02*
G03*
X035417Y0399I-00008J0D01*
G01*
X04098Y03675D02*
G03*
X04098Y03675I-00008J0D01*
G01*
Y034769D02*
G03*
X04098Y034769I-00008J0D01*
G01*
X04378Y036741D02*
G03*
X04378Y036741I-00008J0D01*
G01*
Y034759D02*
G03*
X04378Y034759I-00008J0D01*
G01*
X04758Y0365D02*
G03*
X04758Y0365I-00008J0D01*
G01*
Y0335D02*
G03*
X04758Y0335I-00008J0D01*
G01*
Y0345D02*
G03*
X04758Y0345I-00008J0D01*
G01*
Y0355D02*
G03*
X04758Y0355I-00008J0D01*
G01*
Y0325D02*
G03*
X04758Y0325I-00008J0D01*
G01*
Y0315D02*
G03*
X04758Y0315I-00008J0D01*
G01*
Y0285D02*
G03*
X04758Y0285I-00008J0D01*
G01*
Y0275D02*
G03*
X04758Y0275I-00008J0D01*
G01*
Y0265D02*
G03*
X04758Y0265I-00008J0D01*
G01*
Y0255D02*
G03*
X04758Y0255I-00008J0D01*
G01*
Y0395D02*
G03*
X04758Y0395I-00008J0D01*
G01*
Y0375D02*
G03*
X04758Y0375I-00008J0D01*
G01*
Y0295D02*
G03*
X04758Y0295I-00008J0D01*
G01*
Y0305D02*
G03*
X04758Y0305I-00008J0D01*
G01*
Y0385D02*
G03*
X04758Y0385I-00008J0D01*
G01*
X03758Y0315D02*
G03*
X03758Y0315I-00008J0D01*
G01*
Y0295D02*
G03*
X03758Y0295I-00008J0D01*
G01*
Y0305D02*
G03*
X03758Y0305I-00008J0D01*
G01*
Y0325D02*
G03*
X03758Y0325I-00008J0D01*
G01*
Y0335D02*
G03*
X03758Y0335I-00008J0D01*
G01*
Y0345D02*
G03*
X03758Y0345I-00008J0D01*
G01*
Y0355D02*
G03*
X03758Y0355I-00008J0D01*
G01*
Y0365D02*
G03*
X03758Y0365I-00008J0D01*
G01*
Y0375D02*
G03*
X03758Y0375I-00008J0D01*
G01*
Y0385D02*
G03*
X03758Y0385I-00008J0D01*
G01*
Y0395D02*
G03*
X03758Y0395I-00008J0D01*
G01*
Y0255D02*
G03*
X03758Y0255I-00008J0D01*
G01*
Y0275D02*
G03*
X03758Y0275I-00008J0D01*
G01*
Y0285D02*
G03*
X03758Y0285I-00008J0D01*
G01*
Y0265D02*
G03*
X03758Y0265I-00008J0D01*
G01*
X053013Y027D02*
G03*
X053013Y027I-00008J0D01*
G01*
X054013D02*
G03*
X054013Y027I-00008J0D01*
G01*
X056047D02*
G03*
X056047Y027I-00008J0D01*
G01*
X057047D02*
G03*
X057047Y027I-00008J0D01*
G01*
X029804Y027791D02*
G03*
X029804Y027791I-00008J0D01*
G01*
X034528Y022987D02*
G03*
X034528Y022987I-00008J0D01*
G01*
X029804D02*
G03*
X029804Y022987I-00008J0D01*
G01*
X032166Y0222D02*
G03*
X032166Y0222I-00008J0D01*
G01*
X034528Y027791D02*
G03*
X034528Y027791I-00008J0D01*
G01*
X05342Y033594D02*
G03*
X05342Y033594I-00008J0D01*
G01*
X053431Y032603D02*
G03*
X053431Y032603I-00008J0D01*
G01*
X05644Y032591D02*
G03*
X05644Y032591I-00008J0D01*
G01*
Y033594D02*
G03*
X05644Y033594I-00008J0D01*
G01*
X05908Y0271D02*
G03*
X05908Y0271I-00008J0D01*
G01*
X06008D02*
G03*
X06008Y0271I-00008J0D01*
G01*
D65*
X029764Y027791D02*
G03*
X029764Y027791I-00004J0D01*
G01*
X034488Y022987D02*
G03*
X034488Y022987I-00004J0D01*
G01*
X029764D02*
G03*
X029764Y022987I-00004J0D01*
G01*
X032126Y0222D02*
G03*
X032126Y0222I-00004J0D01*
G01*
X034488Y027791D02*
G03*
X034488Y027791I-00004J0D01*
G01*
M02*
