G04*
G04 #@! TF.GenerationSoftware,Altium Limited,Altium Designer,21.3.2 (30)*
G04*
G04 Layer_Physical_Order=2*
G04 Layer_Color=16711680*
%FSTAX24Y24*%
%MOIN*%
G70*
G04*
G04 #@! TF.SameCoordinates,FD8D8422-8178-4DE3-8D18-A0C0927E7843*
G04*
G04*
G04 #@! TF.FilePolarity,Positive*
G04*
G01*
G75*
%ADD43C,0.0300*%
%ADD44C,0.0600*%
%ADD45C,0.0984*%
%ADD46O,0.0750X0.0650*%
%ADD47O,0.1000X0.0660*%
%ADD48R,0.1000X0.0800*%
%ADD49O,0.1000X0.0800*%
%ADD50R,0.0787X0.0787*%
%ADD51C,0.0787*%
%ADD52C,0.0787*%
%ADD53C,0.0700*%
%ADD54O,0.0984X0.0787*%
%ADD55R,0.0984X0.0787*%
%ADD56R,0.0591X0.0591*%
%ADD57C,0.0591*%
%ADD58C,0.1100*%
%ADD59R,0.0600X0.0600*%
%ADD60R,0.0787X0.0787*%
%ADD61C,0.0500*%
G36*
X06095Y041378D02*
X060928Y041367D01*
X0609Y041364D01*
X06085Y04143D01*
X059779Y0425D01*
X05981Y04254D01*
X059907Y042484D01*
X060034Y04245D01*
X060166D01*
X060293Y042484D01*
X060407Y04255D01*
X0605Y042643D01*
X060566Y042757D01*
X0606Y042884D01*
Y043016D01*
X060566Y043143D01*
X0605Y043257D01*
X060407Y04335D01*
X060293Y043416D01*
X060166Y04345D01*
X060034D01*
X059907Y043416D01*
X059793Y04335D01*
X0597Y043257D01*
X059634Y043143D01*
X0596Y043016D01*
Y042884D01*
X059634Y042757D01*
X05969Y04266D01*
X05965Y042629D01*
X05908Y0432D01*
X059007Y043256D01*
X058921Y043291D01*
X05883Y043303D01*
X03117D01*
X031079Y043291D01*
X030993Y043256D01*
X03092Y0432D01*
X02969Y04197D01*
X029634Y041897D01*
X029599Y041811D01*
X029587Y04172D01*
Y03809D01*
X029599Y037999D01*
X029634Y037913D01*
X02969Y03784D01*
X03075Y03678D01*
X030823Y036724D01*
X030909Y036689D01*
X031Y036677D01*
X03139D01*
X031481Y036689D01*
X031567Y036724D01*
X03164Y03678D01*
X032206Y037347D01*
X033504D01*
X033997Y036854D01*
Y03459D01*
X034009Y034499D01*
X034044Y034413D01*
X034068Y034383D01*
X034043Y034333D01*
X033713D01*
X033691Y034378D01*
X033733Y034433D01*
X033786Y034562D01*
X033805Y0347D01*
X033786Y034838D01*
X033733Y034967D01*
X033648Y035078D01*
X033537Y035163D01*
X033508Y035175D01*
Y035225D01*
X033537Y035237D01*
X033648Y035322D01*
X033733Y035433D01*
X033786Y035562D01*
X033805Y0357D01*
X033786Y035838D01*
X033733Y035967D01*
X033648Y036078D01*
X033537Y036163D01*
X033508Y036175D01*
Y036225D01*
X033537Y036237D01*
X033648Y036322D01*
X033733Y036433D01*
X033786Y036562D01*
X033805Y0367D01*
X033786Y036838D01*
X033733Y036967D01*
X033648Y037078D01*
X033537Y037163D01*
X033408Y037216D01*
X03327Y037235D01*
X03293D01*
X032792Y037216D01*
X032663Y037163D01*
X032552Y037078D01*
X032467Y036967D01*
X032414Y036838D01*
X032395Y0367D01*
X032414Y036562D01*
X032467Y036433D01*
X032552Y036322D01*
X032663Y036237D01*
X032692Y036225D01*
Y036175D01*
X032663Y036163D01*
X032552Y036078D01*
X032533Y036053D01*
X029D01*
X028909Y036041D01*
X028823Y036006D01*
X02875Y03595D01*
X02807Y03527D01*
X028014Y035197D01*
X027979Y035111D01*
X027967Y03502D01*
Y02181D01*
X027979Y021719D01*
X028014Y021633D01*
X02807Y02156D01*
X02875Y02088D01*
X028823Y020824D01*
X028909Y020789D01*
X029Y020777D01*
X0575D01*
X057591Y020789D01*
X057677Y020824D01*
X05775Y02088D01*
X05833Y02146D01*
X058386Y021533D01*
X058421Y021619D01*
X058433Y02171D01*
Y024917D01*
X05844Y024924D01*
X058499Y025026D01*
X05853Y025141D01*
Y025259D01*
X058499Y025374D01*
X05844Y025476D01*
X058356Y02556D01*
X058254Y025619D01*
X058139Y02565D01*
X058021D01*
X057906Y025619D01*
X057804Y02556D01*
X05772Y025476D01*
X057661Y025374D01*
X05763Y025259D01*
Y025141D01*
X057661Y025026D01*
X05772Y024924D01*
X057727Y024917D01*
Y021858D01*
X057689Y021827D01*
X057645Y021845D01*
Y022795D01*
X057366D01*
X057353Y022845D01*
X057454Y022904D01*
X057546Y022996D01*
X057612Y023109D01*
X057645Y023235D01*
Y023365D01*
X057612Y023491D01*
X057546Y023604D01*
X057454Y023696D01*
X057341Y023762D01*
X057215Y023795D01*
X057154D01*
X056254Y024695D01*
X056181Y024751D01*
X056096Y024786D01*
X056005Y024798D01*
X05089D01*
X050871Y024844D01*
X05088Y024854D01*
X050939Y024956D01*
X05097Y025071D01*
Y025189D01*
X050939Y025304D01*
X050891Y025387D01*
X050916Y025437D01*
X054757D01*
X054848Y025449D01*
X054933Y025484D01*
X055006Y02554D01*
X055872Y026406D01*
X05656D01*
Y026497D01*
X05661Y026524D01*
X056685Y026474D01*
X056793Y026429D01*
X056908Y026406D01*
X057025D01*
X05714Y026429D01*
X057248Y026474D01*
X057345Y026539D01*
X057428Y026622D01*
X057493Y026719D01*
X057538Y026827D01*
X05756Y026942D01*
Y027058D01*
X057538Y027173D01*
X057493Y027281D01*
X057428Y027378D01*
X057345Y027461D01*
X057248Y027526D01*
X05714Y027571D01*
X057025Y027594D01*
X056908D01*
X056793Y027571D01*
X056685Y027526D01*
X05661Y027476D01*
X05656Y027503D01*
Y027594D01*
X055373D01*
Y026906D01*
X05461Y026143D01*
X049606D01*
X049389Y02636D01*
X049408Y026406D01*
X050494D01*
Y026497D01*
X050544Y026524D01*
X050619Y026474D01*
X050727Y026429D01*
X050842Y026406D01*
X050958D01*
X051073Y026429D01*
X051181Y026474D01*
X051278Y026539D01*
X051361Y026622D01*
X051426Y026719D01*
X051471Y026827D01*
X051494Y026942D01*
Y027058D01*
X051471Y027173D01*
X051426Y027281D01*
X051361Y027378D01*
X051278Y027461D01*
X051181Y027526D01*
X051073Y027571D01*
X050958Y027594D01*
X050842D01*
X050727Y027571D01*
X050619Y027526D01*
X050544Y027476D01*
X050494Y027503D01*
Y027594D01*
X049306D01*
Y026508D01*
X04926Y026489D01*
X049103Y026646D01*
Y027D01*
X049091Y027091D01*
X049056Y027177D01*
X049Y02725D01*
X0485Y02775D01*
X048427Y027806D01*
X048341Y027841D01*
X04825Y027853D01*
X048077D01*
X04802Y027922D01*
X047964Y027968D01*
Y028032D01*
X04802Y028078D01*
X048077Y028147D01*
X051287D01*
X05234Y027094D01*
Y026406D01*
X053527D01*
Y026497D01*
X053577Y026524D01*
X053652Y026474D01*
X05376Y026429D01*
X053875Y026406D01*
X053992D01*
X054107Y026429D01*
X054215Y026474D01*
X054312Y026539D01*
X054394Y026622D01*
X054459Y026719D01*
X054504Y026827D01*
X054527Y026942D01*
Y027058D01*
X054504Y027173D01*
X054459Y027281D01*
X054394Y027378D01*
X054312Y027461D01*
X054215Y027526D01*
X054107Y027571D01*
X053992Y027594D01*
X053875D01*
X05376Y027571D01*
X053652Y027526D01*
X053577Y027476D01*
X053527Y027503D01*
Y027594D01*
X052839D01*
X051683Y02875D01*
X05161Y028806D01*
X051525Y028841D01*
X051433Y028853D01*
X048077D01*
X04802Y028922D01*
X047964Y028968D01*
Y029032D01*
X04802Y029078D01*
X048094Y029169D01*
X04815Y029272D01*
X048184Y029384D01*
X048195Y0295D01*
X048184Y029616D01*
X04815Y029728D01*
X048094Y029831D01*
X04802Y029922D01*
X047964Y029968D01*
Y030032D01*
X04802Y030078D01*
X048094Y030169D01*
X04815Y030272D01*
X048184Y030384D01*
X048195Y0305D01*
X048184Y030616D01*
X04815Y030728D01*
X048094Y030831D01*
X04802Y030922D01*
X047964Y030968D01*
Y031032D01*
X04802Y031078D01*
X048094Y031169D01*
X04815Y031272D01*
X048184Y031384D01*
X048195Y0315D01*
X048184Y031616D01*
X04815Y031728D01*
X048094Y031831D01*
X04802Y031922D01*
X047964Y031968D01*
Y032032D01*
X04802Y032078D01*
X048094Y032169D01*
X04815Y032272D01*
X048184Y032384D01*
X048195Y0325D01*
X048184Y032616D01*
X04815Y032728D01*
X048094Y032831D01*
X04802Y032922D01*
X047964Y032968D01*
Y033032D01*
X04802Y033078D01*
X048094Y033169D01*
X04815Y033272D01*
X048184Y033384D01*
X048195Y0335D01*
X048184Y033616D01*
X04815Y033728D01*
X048094Y033831D01*
X04802Y033922D01*
X047964Y033968D01*
Y034032D01*
X04802Y034078D01*
X048094Y034169D01*
X04815Y034272D01*
X048184Y034384D01*
X048195Y0345D01*
X048184Y034616D01*
X04815Y034728D01*
X048094Y034831D01*
X04802Y034922D01*
X047986Y03495D01*
X047993Y035007D01*
X048014Y035016D01*
X049177Y033854D01*
Y03093D01*
X049189Y030839D01*
X049224Y030753D01*
X04928Y03068D01*
X05075Y02921D01*
X050823Y029154D01*
X050909Y029119D01*
X051Y029107D01*
X057824D01*
X05802Y028911D01*
Y028901D01*
X058051Y028786D01*
X05811Y028684D01*
X058194Y0286D01*
X058296Y028541D01*
X058411Y02851D01*
X058529D01*
X058644Y028541D01*
X058657Y028548D01*
X058705Y028523D01*
X05871Y028487D01*
X058694Y028467D01*
X058659Y028381D01*
X058647Y02829D01*
Y027694D01*
X058406D01*
Y026506D01*
X059594D01*
Y026597D01*
X059644Y026624D01*
X059719Y026574D01*
X059827Y026529D01*
X059942Y026506D01*
X060058D01*
X060173Y026529D01*
X060281Y026574D01*
X060378Y026639D01*
X060461Y026722D01*
X060526Y026819D01*
X060571Y026927D01*
X060594Y027042D01*
Y027158D01*
X060571Y027273D01*
X060526Y027381D01*
X060461Y027478D01*
X060378Y027561D01*
X060281Y027626D01*
X060173Y027671D01*
X060058Y027694D01*
X059942D01*
X059827Y027671D01*
X059719Y027626D01*
X059644Y027576D01*
X059594Y027603D01*
Y027694D01*
X059353D01*
Y028154D01*
X059376Y028183D01*
X059411Y028269D01*
X059423Y02836D01*
Y02939D01*
X059423Y02939D01*
X059411Y029481D01*
X059376Y029567D01*
X05932Y02964D01*
X0578Y03116D01*
X057727Y031216D01*
X057641Y031251D01*
X05755Y031263D01*
X055191D01*
X053851Y032602D01*
Y032669D01*
X053817Y032796D01*
X053752Y03291D01*
X053658Y033003D01*
X053587Y033044D01*
X053601Y033094D01*
X05384D01*
Y033595D01*
X054125Y03388D01*
X055898D01*
X055923Y033837D01*
X055894Y033787D01*
X05586Y03366D01*
Y033528D01*
X055894Y033401D01*
X05596Y033287D01*
X056053Y033194D01*
X056167Y033128D01*
X056204Y033119D01*
Y033067D01*
X056167Y033057D01*
X056053Y032991D01*
X05596Y032898D01*
X055894Y032784D01*
X05586Y032657D01*
Y032525D01*
X055894Y032398D01*
X05596Y032284D01*
X056053Y032191D01*
X056167Y032125D01*
X056295Y032091D01*
X056426D01*
X056553Y032125D01*
X056667Y032191D01*
X056761Y032284D01*
X056826Y032398D01*
X05686Y032525D01*
Y032592D01*
X057583Y033314D01*
X057607Y033324D01*
X05768Y03338D01*
X059349Y03505D01*
X059472D01*
X059612Y035087D01*
X059738Y03516D01*
X05984Y035262D01*
X059913Y035388D01*
X05995Y035528D01*
Y035672D01*
X059913Y035812D01*
X05984Y035938D01*
X059738Y03604D01*
X059612Y036113D01*
X059472Y03615D01*
X059415D01*
X059395Y036196D01*
X06085Y03765D01*
X0609Y037716D01*
X060928Y037713D01*
X06095Y037702D01*
Y019315D01*
X060904Y019296D01*
X0609Y0193D01*
X02785D01*
Y04375D01*
X06095D01*
Y041378D01*
D02*
G37*
G36*
X059187Y041354D02*
X059162Y041308D01*
X059108Y041319D01*
X058992D01*
X058877Y041296D01*
X058769Y041251D01*
X058672Y041186D01*
X058589Y041103D01*
X058524Y041006D01*
X058479Y040898D01*
X058456Y040783D01*
Y040667D01*
X058479Y040552D01*
X058524Y040444D01*
X058589Y040347D01*
X058672Y040264D01*
X058769Y040199D01*
X058877Y040154D01*
X058992Y040131D01*
X059108D01*
X059223Y040154D01*
X059331Y040199D01*
X059428Y040264D01*
X059511Y040347D01*
X059576Y040444D01*
X059621Y040552D01*
X059644Y040667D01*
Y040783D01*
X059633Y040837D01*
X059679Y040862D01*
X059747Y040794D01*
Y039592D01*
X059697Y039564D01*
X059612Y039613D01*
X059472Y03965D01*
X059328D01*
X059188Y039613D01*
X059062Y03954D01*
X05896Y039438D01*
X058887Y039312D01*
X05885Y039172D01*
Y039028D01*
X058887Y038888D01*
X05896Y038762D01*
X059062Y03866D01*
X059188Y038587D01*
X059328Y03855D01*
X059472D01*
X059612Y038587D01*
X059648Y038608D01*
X059679Y038568D01*
X059084Y037973D01*
X053D01*
X052909Y037961D01*
X052823Y037926D01*
X05275Y03787D01*
X05117Y03629D01*
X051114Y036217D01*
X051079Y036131D01*
X051067Y03604D01*
Y03472D01*
X051079Y034629D01*
X051114Y034543D01*
X05117Y03447D01*
X05172Y033921D01*
Y033911D01*
X051751Y033796D01*
X05181Y033694D01*
X051894Y03361D01*
X051996Y033551D01*
X052111Y03352D01*
X052229D01*
X052344Y033551D01*
X052446Y03361D01*
X05253Y033694D01*
X052589Y033796D01*
X05262Y033911D01*
Y034029D01*
X052589Y034144D01*
X05253Y034246D01*
X052446Y03433D01*
X052344Y034389D01*
X052229Y03442D01*
X052219D01*
X051773Y034866D01*
Y035108D01*
X051823Y035136D01*
X051908Y035087D01*
X052048Y03505D01*
X052192D01*
X052332Y035087D01*
X052458Y03516D01*
X05256Y035262D01*
X052633Y035388D01*
X05267Y035528D01*
Y035651D01*
X053006Y035987D01*
X053484D01*
X053503Y035941D01*
X0535Y035938D01*
X053427Y035812D01*
X05339Y035672D01*
Y035528D01*
X053427Y035388D01*
X0535Y035262D01*
X053602Y03516D01*
X053728Y035087D01*
X053868Y03505D01*
X053991D01*
X05439Y03465D01*
X05439Y03465D01*
X054409Y034636D01*
X054392Y034586D01*
X053979D01*
X053887Y034574D01*
X053802Y034539D01*
X053729Y034483D01*
X05334Y034094D01*
X05284D01*
Y033094D01*
X053102D01*
X053116Y033044D01*
X053044Y033003D01*
X052951Y03291D01*
X052885Y032796D01*
X052851Y032669D01*
Y032537D01*
X052885Y03241D01*
X052951Y032296D01*
X053044Y032203D01*
X053158Y032137D01*
X053286Y032103D01*
X053352D01*
X054795Y03066D01*
X054868Y030604D01*
X054953Y030569D01*
X055044Y030557D01*
X057404D01*
X058137Y029824D01*
X058109Y029781D01*
X058061Y029801D01*
X05797Y029813D01*
X051146D01*
X049883Y031076D01*
Y034D01*
X049871Y034091D01*
X049836Y034177D01*
X04978Y03425D01*
X04828Y03575D01*
X048207Y035806D01*
X048121Y035841D01*
X048082Y035846D01*
X04802Y035922D01*
X047964Y035968D01*
Y036032D01*
X04802Y036078D01*
X048094Y036169D01*
X04815Y036272D01*
X048184Y036384D01*
X048195Y0365D01*
X048184Y036616D01*
X04815Y036728D01*
X048094Y036831D01*
X04802Y036922D01*
X047964Y036968D01*
Y037032D01*
X04802Y037078D01*
X048094Y037169D01*
X04815Y037272D01*
X048184Y037384D01*
X048195Y0375D01*
X048184Y037616D01*
X04815Y037728D01*
X048094Y037831D01*
X04802Y037922D01*
X047964Y037968D01*
Y038032D01*
X04802Y038078D01*
X048077Y038147D01*
X049785D01*
X049853Y038094D01*
X049939Y038059D01*
X05003Y038047D01*
X05464D01*
X054731Y038059D01*
X054817Y038094D01*
X05489Y03815D01*
X0551Y03836D01*
X055156Y038433D01*
X055191Y038519D01*
X055203Y03861D01*
Y03887D01*
X055209Y038872D01*
X055253Y038878D01*
X05532Y038762D01*
X055422Y03866D01*
X055548Y038587D01*
X055688Y03855D01*
X055832D01*
X055972Y038587D01*
X056098Y03866D01*
X0562Y038762D01*
X056273Y038888D01*
X05631Y039028D01*
Y039172D01*
X056273Y039312D01*
X0562Y039438D01*
X056098Y03954D01*
X055972Y039613D01*
X055832Y03965D01*
X055688D01*
X055548Y039613D01*
X055422Y03954D01*
X05532Y039438D01*
X055253Y039322D01*
X055209Y039328D01*
X055203Y03933D01*
Y040284D01*
X05545Y04053D01*
X055489Y040581D01*
X055508D01*
X055623Y040604D01*
X055731Y040649D01*
X055828Y040714D01*
X055911Y040797D01*
X055925Y040817D01*
X055975D01*
X055989Y040797D01*
X056072Y040714D01*
X056169Y040649D01*
X056277Y040604D01*
X056392Y040581D01*
X056508D01*
X056623Y040604D01*
X056731Y040649D01*
X056828Y040714D01*
X056911Y040797D01*
X056976Y040894D01*
X057021Y041002D01*
X057044Y041117D01*
Y041233D01*
X057021Y041348D01*
X056976Y041456D01*
X056911Y041553D01*
X056828Y041636D01*
X056731Y041701D01*
X056623Y041746D01*
X056508Y041769D01*
X056392D01*
X056277Y041746D01*
X056169Y041701D01*
X056072Y041636D01*
X055989Y041553D01*
X055975Y041533D01*
X055925D01*
X055911Y041553D01*
X055828Y041636D01*
X055731Y041701D01*
X055623Y041746D01*
X055508Y041769D01*
X055392D01*
X055277Y041746D01*
X055169Y041701D01*
X055072Y041636D01*
X054989Y041553D01*
X054975Y041533D01*
X054925D01*
X054911Y041553D01*
X054828Y041636D01*
X054731Y041701D01*
X054623Y041746D01*
X054508Y041769D01*
X054392D01*
X054277Y041746D01*
X054169Y041701D01*
X054094Y041651D01*
X054044Y041678D01*
Y041769D01*
X053356D01*
X053073Y042051D01*
X053093Y042097D01*
X058444D01*
X059187Y041354D01*
D02*
G37*
G36*
X046172Y041551D02*
X045724Y041103D01*
X037558D01*
X037527Y041143D01*
X03754Y041191D01*
Y041201D01*
X037936Y041597D01*
X046152D01*
X046172Y041551D01*
D02*
G37*
G36*
X036529Y042551D02*
X035831Y041853D01*
X035775Y04178D01*
X03574Y041695D01*
X035728Y041603D01*
Y040413D01*
X035678Y040387D01*
X035618Y040426D01*
X03551Y040471D01*
X035395Y040494D01*
X035279D01*
X035249Y040488D01*
X034797Y04094D01*
X034724Y040996D01*
X034639Y041031D01*
X034547Y041043D01*
X03246D01*
X032368Y041031D01*
X032283Y040996D01*
X03221Y04094D01*
X032134Y040863D01*
X031383D01*
X031324Y040952D01*
X031228Y041048D01*
X031114Y041124D01*
X030989Y041176D01*
X030855Y041203D01*
X030718D01*
X030585Y041176D01*
X030459Y041124D01*
X030345Y041048D01*
X030339Y041042D01*
X030293Y041061D01*
Y041574D01*
X031316Y042597D01*
X03651D01*
X036529Y042551D01*
D02*
G37*
G36*
X037392Y042051D02*
X037041Y0417D01*
X037031D01*
X036916Y041669D01*
X036814Y04161D01*
X03673Y041526D01*
X036671Y041424D01*
X03664Y041309D01*
Y041191D01*
X036671Y041076D01*
X03673Y040974D01*
X036814Y04089D01*
X036916Y040831D01*
X036991Y040811D01*
X037006Y040755D01*
X03648Y040229D01*
X036434Y040248D01*
Y041457D01*
X037074Y042097D01*
X037372D01*
X037392Y042051D01*
D02*
G37*
G36*
X031853Y040107D02*
X030959Y039213D01*
X030855Y039234D01*
X030718D01*
X030585Y039207D01*
X030459Y039155D01*
X030345Y03908D01*
X030339Y039073D01*
X030293Y039092D01*
Y03996D01*
X030339Y039979D01*
X030345Y039973D01*
X030459Y039897D01*
X030585Y039845D01*
X030718Y039818D01*
X030855D01*
X030989Y039845D01*
X031114Y039897D01*
X031228Y039973D01*
X031324Y040069D01*
X031383Y040157D01*
X031832D01*
X031853Y040107D01*
D02*
G37*
G36*
X052856Y041269D02*
Y040581D01*
X054044D01*
Y040672D01*
X054094Y040699D01*
X054169Y040649D01*
X054277Y040604D01*
X054392Y040581D01*
X05448D01*
X054514Y040534D01*
X054509Y040521D01*
X054497Y04043D01*
Y03933D01*
X054491Y039328D01*
X054447Y039322D01*
X05438Y039438D01*
X054278Y03954D01*
X054152Y039613D01*
X054012Y03965D01*
X053889D01*
X05339Y04015D01*
X053317Y040206D01*
X053231Y040241D01*
X05314Y040253D01*
X051288D01*
X051268Y040303D01*
X051311Y040347D01*
X051376Y040444D01*
X051421Y040552D01*
X051444Y040667D01*
Y040783D01*
X051421Y040898D01*
X051376Y041006D01*
X051311Y041103D01*
X051228Y041186D01*
X051131Y041251D01*
X051023Y041296D01*
X050908Y041319D01*
X050792D01*
X050677Y041296D01*
X050569Y041251D01*
X050472Y041186D01*
X050389Y041103D01*
X050324Y041006D01*
X050279Y040898D01*
X050256Y040783D01*
Y040667D01*
X050279Y040552D01*
X050324Y040444D01*
X050389Y040347D01*
X050432Y040303D01*
X050412Y040253D01*
X049466D01*
X048169Y041551D01*
X048188Y041597D01*
X052529D01*
X052856Y041269D01*
D02*
G37*
G36*
X034749Y039989D02*
X034743Y039959D01*
Y039842D01*
X034766Y039727D01*
X034811Y039619D01*
X034876Y039522D01*
X034959Y039439D01*
X035056Y039374D01*
X035164Y039329D01*
X035253Y039312D01*
X035281Y039264D01*
X035281Y039257D01*
X035259Y039203D01*
X035247Y039111D01*
Y037247D01*
X035166Y037213D01*
X035055Y037128D01*
X03497Y037017D01*
X034916Y036888D01*
X034898Y03675D01*
X034916Y036612D01*
X03497Y036483D01*
X035055Y036372D01*
X035166Y036287D01*
X035195Y036275D01*
Y036225D01*
X035166Y036213D01*
X035055Y036128D01*
X03497Y036017D01*
X034916Y035888D01*
X034898Y03575D01*
X034916Y035612D01*
X03497Y035483D01*
X035055Y035372D01*
X035166Y035287D01*
X035195Y035275D01*
Y035225D01*
X035166Y035213D01*
X035055Y035128D01*
X03497Y035017D01*
X034916Y034888D01*
X034898Y03475D01*
X034916Y034612D01*
X034929Y034581D01*
X034887Y034552D01*
X034703Y034736D01*
Y037D01*
X034691Y037091D01*
X034656Y037177D01*
X0346Y03725D01*
X0346Y03725D01*
X0339Y03795D01*
X033827Y038006D01*
X033741Y038041D01*
X03365Y038053D01*
X03206D01*
X031969Y038041D01*
X031883Y038006D01*
X03181Y03795D01*
X031244Y037383D01*
X031146D01*
X030729Y0378D01*
X03075Y03785D01*
X030855D01*
X030989Y037876D01*
X031114Y037929D01*
X031228Y038004D01*
X031324Y038101D01*
X0314Y038214D01*
X031452Y03834D01*
X031479Y038474D01*
Y03861D01*
X031458Y038714D01*
X032291Y039547D01*
X033485D01*
X033502Y039522D01*
X033585Y039439D01*
X033682Y039374D01*
X03379Y039329D01*
X033905Y039307D01*
X034021D01*
X034136Y039329D01*
X034244Y039374D01*
X034341Y039439D01*
X034424Y039522D01*
X034489Y039619D01*
X034534Y039727D01*
X034557Y039842D01*
Y039959D01*
X034534Y040073D01*
X034489Y040181D01*
X034531Y040207D01*
X034749Y039989D01*
D02*
G37*
G36*
X05339Y039151D02*
Y039028D01*
X053427Y038888D01*
X053476Y038803D01*
X053448Y038753D01*
X052612D01*
X052584Y038803D01*
X052633Y038888D01*
X05267Y039028D01*
Y039172D01*
X052633Y039312D01*
X05256Y039438D01*
X052501Y039497D01*
X052522Y039547D01*
X052994D01*
X05339Y039151D01*
D02*
G37*
G36*
X051739Y039497D02*
X05168Y039438D01*
X051607Y039312D01*
X05157Y039172D01*
Y039028D01*
X051607Y038888D01*
X051656Y038803D01*
X051628Y038753D01*
X050792D01*
X050764Y038803D01*
X050813Y038888D01*
X05085Y039028D01*
Y039172D01*
X050813Y039312D01*
X05074Y039438D01*
X050681Y039497D01*
X050702Y039547D01*
X051718D01*
X051739Y039497D01*
D02*
G37*
G36*
X036228Y039175D02*
Y037106D01*
X03618Y037089D01*
X036151Y037128D01*
X03604Y037213D01*
X035953Y037249D01*
Y038965D01*
X036182Y039194D01*
X036228Y039175D01*
D02*
G37*
G36*
X060224Y038044D02*
X060227Y038026D01*
X058854Y036653D01*
X057D01*
X056909Y036641D01*
X056823Y036606D01*
X05675Y03655D01*
X05621Y03601D01*
X056198Y035993D01*
X056148Y03599D01*
X056098Y03604D01*
X055972Y036113D01*
X055832Y03615D01*
X055709D01*
X05527Y03659D01*
X055197Y036646D01*
X055111Y036681D01*
X05502Y036693D01*
X05286D01*
X052769Y036681D01*
X052683Y036646D01*
X05261Y03659D01*
X052171Y03615D01*
X0521D01*
X052079Y0362D01*
X053146Y037267D01*
X05923D01*
X059321Y037279D01*
X059407Y037314D01*
X05948Y03737D01*
X060171Y038062D01*
X060224Y038044D01*
D02*
G37*
G36*
X05521Y035651D02*
Y035528D01*
X055247Y035388D01*
X055296Y035303D01*
X055268Y035253D01*
X054786D01*
X05449Y035549D01*
Y035672D01*
X054453Y035812D01*
X05438Y035938D01*
X054377Y035941D01*
X054396Y035987D01*
X054874D01*
X05521Y035651D01*
D02*
G37*
G36*
X032552Y035322D02*
X032663Y035237D01*
X032692Y035225D01*
Y035175D01*
X032663Y035163D01*
X032552Y035078D01*
X032467Y034967D01*
X032414Y034838D01*
X032395Y0347D01*
X032403Y034643D01*
X032358Y034621D01*
X03178Y0352D01*
X031707Y035256D01*
X031621Y035291D01*
X031576Y035297D01*
X031579Y035347D01*
X032533D01*
X032552Y035322D01*
D02*
G37*
G36*
X049071Y03965D02*
X049144Y039594D01*
X049229Y039559D01*
X04932Y039547D01*
X049898D01*
X049919Y039497D01*
X04986Y039438D01*
X049787Y039312D01*
X04975Y039172D01*
Y039028D01*
X049783Y038903D01*
X049756Y038853D01*
X048077D01*
X04802Y038922D01*
X047964Y038968D01*
Y039032D01*
X04802Y039078D01*
X048094Y039169D01*
X04815Y039272D01*
X048184Y039384D01*
X048195Y0395D01*
X048184Y039616D01*
X04815Y039728D01*
X048094Y039831D01*
X04802Y039922D01*
X04793Y039996D01*
X047827Y040051D01*
X047715Y040085D01*
X047598Y040097D01*
X047402D01*
X047285Y040085D01*
X047173Y040051D01*
X04707Y039996D01*
X04698Y039922D01*
X046906Y039831D01*
X04685Y039728D01*
X046816Y039616D01*
X046805Y0395D01*
X046816Y039384D01*
X04685Y039272D01*
X046906Y039169D01*
X04698Y039078D01*
X047036Y039032D01*
Y038968D01*
X04698Y038922D01*
X046906Y038831D01*
X04685Y038728D01*
X046816Y038616D01*
X046805Y0385D01*
X046816Y038384D01*
X04685Y038272D01*
X046906Y038169D01*
X04698Y038078D01*
X047036Y038032D01*
Y037968D01*
X04698Y037922D01*
X046906Y037831D01*
X04685Y037728D01*
X046816Y037616D01*
X046805Y0375D01*
X046816Y037384D01*
X04685Y037272D01*
X046906Y037169D01*
X04698Y037078D01*
X047036Y037032D01*
Y036968D01*
X04698Y036922D01*
X046906Y036831D01*
X04685Y036728D01*
X046816Y036616D01*
X046805Y0365D01*
X046816Y036384D01*
X04685Y036272D01*
X046906Y036169D01*
X04698Y036078D01*
X047036Y036032D01*
Y035968D01*
X04698Y035922D01*
X046906Y035831D01*
X04685Y035728D01*
X046816Y035616D01*
X046805Y0355D01*
X046816Y035384D01*
X04685Y035272D01*
X046906Y035169D01*
X04698Y035078D01*
X047036Y035032D01*
Y034968D01*
X04698Y034922D01*
X046906Y034831D01*
X04685Y034728D01*
X046816Y034616D01*
X046805Y0345D01*
X046816Y034384D01*
X04685Y034272D01*
X046906Y034169D01*
X04698Y034078D01*
X047036Y034032D01*
Y033968D01*
X04698Y033922D01*
X046906Y033831D01*
X04685Y033728D01*
X046816Y033616D01*
X046805Y0335D01*
X046816Y033384D01*
X04685Y033272D01*
X046906Y033169D01*
X04698Y033078D01*
X047036Y033032D01*
Y032968D01*
X04698Y032922D01*
X046906Y032831D01*
X04685Y032728D01*
X046816Y032616D01*
X046805Y0325D01*
X046816Y032384D01*
X04685Y032272D01*
X046906Y032169D01*
X04698Y032078D01*
X047036Y032032D01*
Y031968D01*
X04698Y031922D01*
X046906Y031831D01*
X04685Y031728D01*
X046816Y031616D01*
X046805Y0315D01*
X046816Y031384D01*
X04685Y031272D01*
X046906Y031169D01*
X04698Y031078D01*
X047036Y031032D01*
Y030968D01*
X04698Y030922D01*
X046906Y030831D01*
X04685Y030728D01*
X046816Y030616D01*
X046805Y0305D01*
X046816Y030384D01*
X04685Y030272D01*
X046906Y030169D01*
X04698Y030078D01*
X047036Y030032D01*
Y029968D01*
X04698Y029922D01*
X046906Y029831D01*
X04685Y029728D01*
X046816Y029616D01*
X046805Y0295D01*
X046816Y029384D01*
X04685Y029272D01*
X046906Y029169D01*
X04698Y029078D01*
X047036Y029032D01*
Y028968D01*
X04698Y028922D01*
X046906Y028831D01*
X04685Y028728D01*
X046816Y028616D01*
X046805Y0285D01*
X046816Y028384D01*
X04685Y028272D01*
X046906Y028169D01*
X04698Y028078D01*
X047036Y028032D01*
Y027968D01*
X04698Y027922D01*
X046906Y027831D01*
X04685Y027728D01*
X046816Y027616D01*
X046805Y0275D01*
X046816Y027384D01*
X04685Y027272D01*
X046906Y027169D01*
X04698Y027078D01*
X047036Y027032D01*
Y026968D01*
X04698Y026922D01*
X046906Y026831D01*
X04685Y026728D01*
X046816Y026616D01*
X046805Y0265D01*
X046816Y026384D01*
X04685Y026272D01*
X046906Y026169D01*
X04698Y026078D01*
X047036Y026032D01*
Y025968D01*
X04698Y025922D01*
X046906Y025831D01*
X04685Y025728D01*
X046816Y025616D01*
X046812Y02557D01*
X046765Y025553D01*
X046359Y025959D01*
Y027694D01*
X046347Y027785D01*
X046312Y02787D01*
X046256Y027943D01*
X046256Y027943D01*
X03945Y03475D01*
X039377Y034806D01*
X039291Y034841D01*
X0392Y034853D01*
X038077D01*
X03802Y034922D01*
X037964Y034968D01*
Y035032D01*
X03802Y035078D01*
X038094Y035169D01*
X03815Y035272D01*
X038184Y035384D01*
X038195Y0355D01*
X038184Y035616D01*
X03815Y035728D01*
X038094Y035831D01*
X03802Y035922D01*
X037964Y035968D01*
Y036032D01*
X03802Y036078D01*
X038094Y036169D01*
X03815Y036272D01*
X038184Y036384D01*
X038195Y0365D01*
X038184Y036616D01*
X03815Y036728D01*
X038094Y036831D01*
X03802Y036922D01*
X037964Y036968D01*
Y037032D01*
X03802Y037078D01*
X038094Y037169D01*
X03815Y037272D01*
X038184Y037384D01*
X038195Y0375D01*
X038184Y037616D01*
X03815Y037728D01*
X038094Y037831D01*
X03802Y037922D01*
X037964Y037968D01*
Y038032D01*
X03802Y038078D01*
X038094Y038169D01*
X03815Y038272D01*
X038184Y038384D01*
X038195Y0385D01*
X038184Y038616D01*
X03815Y038728D01*
X038094Y038831D01*
X03802Y038922D01*
X037964Y038968D01*
Y039032D01*
X03802Y039078D01*
X038094Y039169D01*
X03815Y039272D01*
X038184Y039384D01*
X038195Y0395D01*
X038184Y039616D01*
X03815Y039728D01*
X038094Y039831D01*
X03802Y039922D01*
X03793Y039996D01*
X037827Y040051D01*
X037715Y040085D01*
X037598Y040097D01*
X037417D01*
X037392Y040143D01*
X037646Y040397D01*
X04587D01*
X045961Y040409D01*
X046047Y040444D01*
X04612Y0405D01*
X046699Y041079D01*
X046724Y041077D01*
X046751Y041024D01*
X046751Y041024D01*
X04672Y040909D01*
Y040899D01*
X04471Y03889D01*
X044654Y038817D01*
X044619Y038731D01*
X044607Y03864D01*
Y034646D01*
X044314Y034353D01*
X044202D01*
X044176Y034403D01*
X044226Y034478D01*
X044271Y034586D01*
X044294Y034701D01*
Y034818D01*
X044271Y034933D01*
X044226Y035041D01*
X044161Y035138D01*
X044078Y035221D01*
X043981Y035286D01*
X043873Y03533D01*
X043758Y035353D01*
X043642D01*
X043527Y03533D01*
X043419Y035286D01*
X043322Y035221D01*
X043239Y035138D01*
X043222Y035113D01*
X043037D01*
X041488Y036662D01*
X041494Y036692D01*
Y036808D01*
X041471Y036923D01*
X041426Y037031D01*
X041361Y037128D01*
X041278Y037211D01*
X041181Y037276D01*
X041073Y037321D01*
X040958Y037344D01*
X040842D01*
X040727Y037321D01*
X040619Y037276D01*
X040522Y037211D01*
X040439Y037128D01*
X040374Y037031D01*
X040329Y036923D01*
X040306Y036808D01*
Y036692D01*
X040329Y036577D01*
X040374Y036469D01*
X040439Y036372D01*
X040522Y036289D01*
X040619Y036224D01*
X040727Y036179D01*
X040842Y036156D01*
X040958D01*
X040988Y036162D01*
X042641Y03451D01*
X042714Y034454D01*
X042799Y034418D01*
X042891Y034406D01*
X043169D01*
X043171Y034403D01*
X043143Y034353D01*
X041815D01*
X041488Y03468D01*
X041494Y034711D01*
Y034827D01*
X041471Y034942D01*
X041426Y03505D01*
X041361Y035147D01*
X041278Y03523D01*
X041181Y035295D01*
X041073Y03534D01*
X040958Y035363D01*
X040842D01*
X040727Y03534D01*
X040619Y035295D01*
X040522Y03523D01*
X040439Y035147D01*
X040374Y03505D01*
X040329Y034942D01*
X040306Y034827D01*
Y034711D01*
X040329Y034596D01*
X040374Y034488D01*
X040439Y034391D01*
X040522Y034308D01*
X040619Y034243D01*
X040727Y034198D01*
X040842Y034175D01*
X040958D01*
X040988Y034181D01*
X041419Y03375D01*
X041492Y033694D01*
X041578Y033659D01*
X041669Y033647D01*
X04446D01*
X044551Y033659D01*
X044637Y033694D01*
X04471Y03375D01*
X04521Y03425D01*
X045266Y034323D01*
X045301Y034409D01*
X045313Y0345D01*
Y038494D01*
X047219Y0404D01*
X047229D01*
X047344Y040431D01*
X047446Y04049D01*
X04753Y040574D01*
X047589Y040676D01*
X04762Y040791D01*
Y040909D01*
X047589Y041024D01*
X047589Y041024D01*
X047616Y041077D01*
X047641Y04108D01*
X049071Y03965D01*
D02*
G37*
G36*
X03698Y036078D02*
X037036Y036032D01*
Y035968D01*
X03698Y035922D01*
X036906Y035831D01*
X03685Y035728D01*
X036816Y035616D01*
X036805Y0355D01*
X036816Y035384D01*
X03685Y035272D01*
X036906Y035169D01*
X03698Y035078D01*
X037036Y035032D01*
Y034968D01*
X03698Y034922D01*
X036906Y034831D01*
X03685Y034728D01*
X036816Y034616D01*
X036805Y0345D01*
X036816Y034384D01*
X03685Y034272D01*
X036906Y034169D01*
X03698Y034078D01*
X037036Y034032D01*
Y033968D01*
X03698Y033922D01*
X036906Y033831D01*
X03685Y033728D01*
X036837Y033683D01*
X036782Y033675D01*
X03674Y03373D01*
X036332Y034137D01*
X036259Y034193D01*
X036174Y034229D01*
X036083Y034241D01*
X036049D01*
X036045Y034261D01*
X036045Y034291D01*
X036151Y034372D01*
X036236Y034483D01*
X036289Y034612D01*
X036307Y03475D01*
X036289Y034888D01*
X036236Y035017D01*
X036151Y035128D01*
X03604Y035213D01*
X036011Y035225D01*
Y035275D01*
X03604Y035287D01*
X036151Y035372D01*
X03617Y035397D01*
X03621D01*
X036301Y035409D01*
X036387Y035444D01*
X03646Y0355D01*
X03683Y035871D01*
X036886Y035944D01*
X036922Y036029D01*
X036926Y036064D01*
X036979Y036079D01*
X03698Y036078D01*
D02*
G37*
G36*
X058936Y035897D02*
X058887Y035812D01*
X05885Y035672D01*
Y035549D01*
X057246Y033946D01*
X057223Y033936D01*
X05715Y03388D01*
X05715Y03388D01*
X056907Y033637D01*
X05686Y033656D01*
Y03366D01*
X056826Y033787D01*
X056761Y033901D01*
X056667Y033994D01*
X056589Y034039D01*
X056581Y034102D01*
X057529Y03505D01*
X057652D01*
X057792Y035087D01*
X057918Y03516D01*
X05802Y035262D01*
X058093Y035388D01*
X05813Y035528D01*
Y035672D01*
X058093Y035812D01*
X058044Y035897D01*
X058072Y035947D01*
X058908D01*
X058936Y035897D01*
D02*
G37*
G36*
X03225Y03373D02*
X032323Y033674D01*
X032409Y033639D01*
X0325Y033627D01*
X034107D01*
X034753Y03298D01*
X034826Y032924D01*
X034912Y032889D01*
X034961Y032882D01*
X034974Y03287D01*
X035058Y032821D01*
X035067Y032765D01*
X035053Y032754D01*
X034969Y032645D01*
X034916Y032517D01*
X034898Y03238D01*
X034916Y032243D01*
X034969Y032115D01*
X035053Y032006D01*
X035163Y031921D01*
X035179Y031915D01*
Y031865D01*
X035163Y031859D01*
X035053Y031774D01*
X035037Y031753D01*
X03455D01*
X034549Y031754D01*
X03449Y031856D01*
X034406Y03194D01*
X034304Y031999D01*
X034189Y03203D01*
X034071D01*
X033956Y031999D01*
X033854Y03194D01*
X03377Y031856D01*
X033711Y031754D01*
X03368Y031639D01*
Y031521D01*
X033711Y031406D01*
X03377Y031304D01*
X033854Y03122D01*
X033956Y031161D01*
X034071Y03113D01*
X034087D01*
X034133Y031094D01*
X034219Y031059D01*
X03431Y031047D01*
X035037D01*
X035053Y031026D01*
X035163Y030941D01*
X035215Y03092D01*
Y03087D01*
X035163Y030849D01*
X035053Y030764D01*
X035037Y030743D01*
X033491D01*
X033474Y030764D01*
X033365Y030849D01*
X033313Y03087D01*
Y03092D01*
X033365Y030941D01*
X033474Y031026D01*
X033559Y031135D01*
X033611Y031263D01*
X03363Y0314D01*
X033611Y031537D01*
X033559Y031665D01*
X033474Y031774D01*
X033365Y031859D01*
X033349Y031865D01*
Y031915D01*
X033365Y031921D01*
X033474Y032006D01*
X033559Y032115D01*
X033611Y032243D01*
X03363Y03238D01*
X033611Y032517D01*
X033559Y032645D01*
X033474Y032754D01*
X033403Y032809D01*
Y0329D01*
X033391Y032991D01*
X033356Y033077D01*
X0333Y03315D01*
X033Y03345D01*
X032927Y033506D01*
X032841Y033541D01*
X03275Y033553D01*
X030886D01*
X030826Y033626D01*
X030767Y033675D01*
Y033725D01*
X030826Y033774D01*
X030901Y033865D01*
X030957Y033969D01*
X030991Y034082D01*
X031003Y0342D01*
X030991Y034318D01*
X030957Y034431D01*
X030901Y034535D01*
X030887Y034552D01*
X030909Y034597D01*
X031384D01*
X03225Y03373D01*
D02*
G37*
G36*
X032639Y032812D02*
X032636Y032762D01*
X032626Y032754D01*
X032541Y032645D01*
X032489Y032517D01*
X03247Y03238D01*
X032489Y032243D01*
X032541Y032115D01*
X032626Y032006D01*
X032735Y031921D01*
X032751Y031915D01*
Y031865D01*
X032735Y031859D01*
X032626Y031774D01*
X032609Y031753D01*
X03232D01*
X032229Y031741D01*
X032143Y031706D01*
X032103Y031675D01*
X032053Y031699D01*
Y0325D01*
X032041Y032591D01*
X032006Y032677D01*
X03195Y03275D01*
X03195Y03275D01*
X031898Y032801D01*
X031918Y032847D01*
X032604D01*
X032639Y032812D01*
D02*
G37*
G36*
X036137Y033334D02*
Y032D01*
X036149Y031909D01*
X036184Y031823D01*
X03624Y03175D01*
X03674Y03125D01*
X036813Y031194D01*
X036899Y031159D01*
X036915Y031157D01*
X03698Y031078D01*
X037036Y031032D01*
Y030968D01*
X03698Y030922D01*
X036906Y030831D01*
X03685Y030728D01*
X036816Y030616D01*
X036805Y0305D01*
X036816Y030384D01*
X03685Y030272D01*
X036906Y030169D01*
X03698Y030078D01*
X037036Y030032D01*
Y029968D01*
X03698Y029922D01*
X036923Y029853D01*
X036356D01*
X03626Y02995D01*
X036187Y030006D01*
X036101Y030041D01*
X03601Y030053D01*
X035988D01*
X035965Y030098D01*
X035986Y030125D01*
X036039Y030253D01*
X036057Y03039D01*
X036039Y030527D01*
X035986Y030655D01*
X035902Y030764D01*
X035793Y030849D01*
X035741Y03087D01*
Y03092D01*
X035793Y030941D01*
X035902Y031026D01*
X035986Y031135D01*
X036039Y031263D01*
X036057Y0314D01*
X036039Y031537D01*
X035986Y031665D01*
X035902Y031774D01*
X035793Y031859D01*
X035777Y031865D01*
Y031915D01*
X035793Y031921D01*
X035902Y032006D01*
X035986Y032115D01*
X036039Y032243D01*
X036057Y03238D01*
X036039Y032517D01*
X035986Y032645D01*
X035902Y032754D01*
X035793Y032839D01*
X035665Y032891D01*
X035618Y032898D01*
X035601Y032945D01*
X03561Y032954D01*
X035669Y033056D01*
X0357Y033171D01*
Y033289D01*
X035669Y033404D01*
X035623Y033485D01*
X035649Y033535D01*
X035936D01*
X036137Y033334D01*
D02*
G37*
G36*
X029689Y034592D02*
X029709Y034548D01*
X029699Y034535D01*
X029643Y034431D01*
X029609Y034318D01*
X029597Y0342D01*
X029609Y034082D01*
X029643Y033969D01*
X029699Y033865D01*
X029774Y033774D01*
X029833Y033725D01*
Y033675D01*
X029774Y033626D01*
X029699Y033535D01*
X029643Y033431D01*
X029609Y033318D01*
X029597Y0332D01*
X029609Y033082D01*
X029643Y032969D01*
X029699Y032865D01*
X029715Y032845D01*
X029694Y0328D01*
X0296D01*
Y0316D01*
X031D01*
Y032635D01*
X031046Y032655D01*
X031347Y032354D01*
Y0295D01*
X031359Y029409D01*
X031394Y029323D01*
X03145Y02925D01*
X03175Y02895D01*
X031823Y028894D01*
X031909Y028859D01*
X032Y028847D01*
X033542D01*
X033562Y028801D01*
X03201Y02725D01*
X031954Y027177D01*
X031919Y027091D01*
X031907Y027D01*
Y02567D01*
X029945Y023708D01*
X029942Y023709D01*
X029798Y023737D01*
X02965D01*
X029505Y023709D01*
X029368Y023652D01*
X029246Y02357D01*
X029219Y023544D01*
X029173Y023563D01*
Y027215D01*
X029219Y027235D01*
X029246Y027208D01*
X029369Y027126D01*
X029505Y027069D01*
X02965Y027041D01*
X029798D01*
X029943Y027069D01*
X030079Y027126D01*
X030202Y027208D01*
X030306Y027312D01*
X030389Y027435D01*
X030445Y027572D01*
X030474Y027717D01*
Y027864D01*
X030445Y028009D01*
X030389Y028146D01*
X030306Y028269D01*
X030202Y028373D01*
X030079Y028455D01*
X029943Y028512D01*
X029798Y028541D01*
X02965D01*
X029505Y028512D01*
X029369Y028455D01*
X029246Y028373D01*
X029219Y028347D01*
X029173Y028366D01*
Y034124D01*
X029645Y034596D01*
X029689Y034592D01*
D02*
G37*
G36*
X036077Y028424D02*
Y027D01*
X036079Y026988D01*
X036034Y026965D01*
X035933Y027066D01*
Y02812D01*
X035921Y028211D01*
X035886Y028297D01*
X03583Y02837D01*
X035398Y028801D01*
X035418Y028847D01*
X035654D01*
X036077Y028424D01*
D02*
G37*
G36*
X048397Y026854D02*
Y0265D01*
X048409Y026409D01*
X048444Y026323D01*
X0485Y02625D01*
X04921Y02554D01*
X04922Y025533D01*
X049203Y025483D01*
X048478D01*
X048386Y025471D01*
X048301Y025436D01*
X048234Y025384D01*
X048213Y02539D01*
X048186Y025408D01*
X048195Y0255D01*
X048184Y025616D01*
X04815Y025728D01*
X048094Y025831D01*
X04802Y025922D01*
X047964Y025968D01*
Y026032D01*
X04802Y026078D01*
X048094Y026169D01*
X04815Y026272D01*
X048184Y026384D01*
X048195Y0265D01*
X048184Y026616D01*
X04815Y026728D01*
X048094Y026831D01*
X04802Y026922D01*
X047964Y026968D01*
Y027032D01*
X04802Y027078D01*
X048061Y027128D01*
X04812Y027131D01*
X048397Y026854D01*
D02*
G37*
G36*
X035227Y027607D02*
Y02692D01*
X035239Y026829D01*
X035274Y026743D01*
X03533Y02667D01*
X03675Y02525D01*
X036808Y025206D01*
Y024915D01*
X035955D01*
X034801Y026068D01*
Y027125D01*
X034803Y027126D01*
X034926Y027208D01*
X03503Y027312D01*
X035113Y027435D01*
X035169Y027572D01*
X035177Y027612D01*
X035227Y027607D01*
D02*
G37*
G36*
X045653Y027547D02*
Y025812D01*
X045665Y025721D01*
X045701Y025636D01*
X045757Y025563D01*
X046369Y02495D01*
X04635Y024906D01*
X046346Y024903D01*
X046257Y024915D01*
X038192D01*
Y026094D01*
X038091D01*
X03807Y026139D01*
X038094Y026169D01*
X03815Y026272D01*
X038184Y026384D01*
X038195Y0265D01*
X038184Y026616D01*
X03815Y026728D01*
X038094Y026831D01*
X03802Y026922D01*
X037964Y026968D01*
Y027032D01*
X03802Y027078D01*
X038094Y027169D01*
X03815Y027272D01*
X038184Y027384D01*
X038195Y0275D01*
X038184Y027616D01*
X03815Y027728D01*
X038094Y027831D01*
X03802Y027922D01*
X037964Y027968D01*
Y028032D01*
X03802Y028078D01*
X038094Y028169D01*
X03815Y028272D01*
X038184Y028384D01*
X038195Y0285D01*
X038184Y028616D01*
X03815Y028728D01*
X038094Y028831D01*
X03802Y028922D01*
X037964Y028968D01*
Y029032D01*
X03802Y029078D01*
X038094Y029169D01*
X03815Y029272D01*
X038184Y029384D01*
X038195Y0295D01*
X038184Y029616D01*
X03815Y029728D01*
X038094Y029831D01*
X03802Y029922D01*
X037964Y029968D01*
Y030032D01*
X03802Y030078D01*
X038094Y030169D01*
X03815Y030272D01*
X038184Y030384D01*
X038195Y0305D01*
X038184Y030616D01*
X03815Y030728D01*
X038094Y030831D01*
X03802Y030922D01*
X037964Y030968D01*
Y031032D01*
X03802Y031078D01*
X038094Y031169D01*
X03815Y031272D01*
X038184Y031384D01*
X038195Y0315D01*
X038184Y031616D01*
X03815Y031728D01*
X038094Y031831D01*
X03802Y031922D01*
X037964Y031968D01*
Y032032D01*
X03802Y032078D01*
X038094Y032169D01*
X03815Y032272D01*
X038184Y032384D01*
X038195Y0325D01*
X038184Y032616D01*
X03815Y032728D01*
X038094Y032831D01*
X03802Y032922D01*
X037964Y032968D01*
Y033032D01*
X03802Y033078D01*
X038094Y033169D01*
X03815Y033272D01*
X038184Y033384D01*
X038195Y0335D01*
X038184Y033616D01*
X03815Y033728D01*
X038094Y033831D01*
X03802Y033922D01*
X037964Y033968D01*
Y034032D01*
X03802Y034078D01*
X038077Y034147D01*
X039054D01*
X045653Y027547D01*
D02*
G37*
G36*
X0337Y027873D02*
X033698Y027864D01*
Y027717D01*
X033727Y027572D01*
X033783Y027435D01*
X033865Y027312D01*
X03397Y027208D01*
X034093Y027126D01*
X034095Y027125D01*
Y025922D01*
X034107Y025831D01*
X034142Y025746D01*
X034198Y025673D01*
X03541Y024461D01*
X035391Y024415D01*
X032232D01*
X032232Y024415D01*
X03214Y024403D01*
X032055Y024367D01*
X031982Y024311D01*
X030507Y022836D01*
X030463Y02286D01*
X030474Y022914D01*
Y023061D01*
X030445Y023206D01*
X030444Y023208D01*
X03251Y025274D01*
X032566Y025347D01*
X032601Y025432D01*
X032613Y025524D01*
Y026854D01*
X033655Y027896D01*
X0337Y027873D01*
D02*
G37*
G36*
X045507Y0235D02*
X045581Y023444D01*
X045666Y023409D01*
X045757Y023397D01*
X049145D01*
X049236Y023409D01*
X049321Y023444D01*
X049394Y0235D01*
X049456Y023562D01*
X049471Y02356D01*
X049497Y023507D01*
X049488Y023491D01*
X049455Y023365D01*
Y023235D01*
X049488Y023109D01*
X049554Y022996D01*
X049646Y022904D01*
X049747Y022845D01*
X049734Y022795D01*
X049455D01*
Y022653D01*
X04767D01*
X047663Y02266D01*
X04756Y022719D01*
X047446Y02275D01*
X047328D01*
X047213Y022719D01*
X04711Y02266D01*
X047027Y022576D01*
X046967Y022474D01*
X046937Y022359D01*
Y022241D01*
X046967Y022126D01*
X047027Y022024D01*
X04711Y02194D01*
X047213Y021881D01*
X047328Y02185D01*
X047446D01*
X04756Y021881D01*
X047663Y02194D01*
X04767Y021947D01*
X049455D01*
Y021805D01*
X049946D01*
X050222Y021529D01*
X050202Y021483D01*
X032443D01*
X032433Y021532D01*
X032441Y021535D01*
X032564Y021617D01*
X032668Y021722D01*
X032751Y021845D01*
X032807Y021981D01*
X032836Y022126D01*
Y022274D01*
X032807Y022419D01*
X032751Y022555D01*
X032668Y022678D01*
X032564Y022783D01*
X032441Y022865D01*
X032305Y022921D01*
X03216Y02295D01*
X032012D01*
X031867Y022921D01*
X031731Y022865D01*
X031608Y022783D01*
X031503Y022678D01*
X031421Y022555D01*
X031365Y022419D01*
X031336Y022274D01*
Y022126D01*
X031365Y021981D01*
X031421Y021845D01*
X031503Y021722D01*
X031608Y021617D01*
X031731Y021535D01*
X031739Y021532D01*
X031729Y021483D01*
X029146D01*
X028673Y021956D01*
Y022082D01*
X028719Y022102D01*
X02899Y02183D01*
X029063Y021774D01*
X029149Y021739D01*
X02924Y021727D01*
X03025D01*
X030341Y021739D01*
X030427Y021774D01*
X0305Y02183D01*
X032378Y023709D01*
X034101D01*
X034111Y02366D01*
X034093Y023652D01*
X03397Y02357D01*
X033866Y023466D01*
X033783Y023343D01*
X033727Y023206D01*
X033698Y023061D01*
Y022914D01*
X033727Y022769D01*
X033783Y022632D01*
X033866Y022509D01*
X03397Y022405D01*
X034093Y022323D01*
X034229Y022266D01*
X034374Y022237D01*
X034522D01*
X034667Y022266D01*
X034803Y022323D01*
X034926Y022405D01*
X035031Y022509D01*
X035113Y022632D01*
X035114Y022634D01*
X043948D01*
X043955Y022627D01*
X044057Y022568D01*
X044172Y022537D01*
X04429D01*
X044405Y022568D01*
X044507Y022627D01*
X044591Y022711D01*
X04465Y022814D01*
X044681Y022928D01*
Y023047D01*
X04465Y023161D01*
X044591Y023264D01*
X044507Y023348D01*
X044405Y023407D01*
X04429Y023437D01*
X044172D01*
X044057Y023407D01*
X043955Y023348D01*
X043948Y02334D01*
X035114D01*
X035113Y023343D01*
X035031Y023466D01*
X034926Y02357D01*
X034803Y023652D01*
X034785Y02366D01*
X034795Y023709D01*
X045299D01*
X045507Y0235D01*
D02*
G37*
G36*
X056655Y023296D02*
Y023235D01*
X056688Y023109D01*
X056754Y022996D01*
X056846Y022904D01*
X056947Y022845D01*
X056934Y022795D01*
X056655D01*
Y022304D01*
X056354Y022003D01*
X055245D01*
Y022795D01*
X054966D01*
X054953Y022845D01*
X055054Y022904D01*
X055146Y022996D01*
X055212Y023109D01*
X055245Y023235D01*
Y023365D01*
X055212Y023491D01*
X055146Y023604D01*
X055054Y023696D01*
X054941Y023762D01*
X054815Y023795D01*
X054685D01*
X054559Y023762D01*
X054446Y023696D01*
X054354Y023604D01*
X054288Y023491D01*
X054255Y023365D01*
Y023235D01*
X054288Y023109D01*
X054354Y022996D01*
X054446Y022904D01*
X054547Y022845D01*
X054534Y022795D01*
X054255D01*
Y022003D01*
X052845D01*
Y022795D01*
X052566D01*
X052553Y022845D01*
X052654Y022904D01*
X052746Y022996D01*
X052812Y023109D01*
X052845Y023235D01*
Y023365D01*
X052812Y023491D01*
X052746Y023604D01*
X052654Y023696D01*
X052541Y023762D01*
X052415Y023795D01*
X052285D01*
X052159Y023762D01*
X052046Y023696D01*
X051954Y023604D01*
X051888Y023491D01*
X051855Y023365D01*
Y02336D01*
X051809Y023341D01*
X051103Y024046D01*
X051122Y024092D01*
X055858D01*
X056655Y023296D01*
D02*
G37*
G36*
X051855Y022296D02*
Y022003D01*
X050746D01*
X050445Y022304D01*
Y022795D01*
X050166D01*
X050153Y022845D01*
X050254Y022904D01*
X050346Y022996D01*
X050412Y023109D01*
X050445Y023235D01*
Y023365D01*
X050412Y023491D01*
X050378Y023549D01*
X050403Y023592D01*
X050558D01*
X051855Y022296D01*
D02*
G37*
%LPC*%
G36*
X028716Y0436D02*
X028584D01*
X028457Y043566D01*
X028343Y0435D01*
X02825Y043407D01*
X028184Y043293D01*
X02815Y043166D01*
Y043034D01*
X028184Y042907D01*
X02825Y042793D01*
X028343Y0427D01*
X028457Y042634D01*
X028584Y0426D01*
X028716D01*
X028843Y042634D01*
X028957Y0427D01*
X02905Y042793D01*
X029116Y042907D01*
X02915Y043034D01*
Y043166D01*
X029116Y043293D01*
X02905Y043407D01*
X028957Y0435D01*
X028843Y043566D01*
X028716Y0436D01*
D02*
G37*
G36*
X059108Y032219D02*
X058992D01*
X058877Y032196D01*
X058769Y032151D01*
X058672Y032086D01*
X058589Y032003D01*
X058524Y031906D01*
X058479Y031798D01*
X058456Y031683D01*
Y031567D01*
X058479Y031452D01*
X058524Y031344D01*
X058589Y031247D01*
X058672Y031164D01*
X058769Y031099D01*
X058877Y031054D01*
X058992Y031031D01*
X059108D01*
X059223Y031054D01*
X059331Y031099D01*
X059428Y031164D01*
X059511Y031247D01*
X059576Y031344D01*
X059621Y031452D01*
X059644Y031567D01*
Y031683D01*
X059621Y031798D01*
X059576Y031906D01*
X059511Y032003D01*
X059428Y032086D01*
X059331Y032151D01*
X059223Y032196D01*
X059108Y032219D01*
D02*
G37*
G36*
X028816Y0205D02*
X028684D01*
X028557Y020466D01*
X028443Y0204D01*
X02835Y020307D01*
X028284Y020193D01*
X02825Y020066D01*
Y019934D01*
X028284Y019807D01*
X02835Y019693D01*
X028443Y0196D01*
X028557Y019534D01*
X028684Y0195D01*
X028816D01*
X028943Y019534D01*
X029057Y0196D01*
X02915Y019693D01*
X029216Y019807D01*
X02925Y019934D01*
Y020066D01*
X029216Y020193D01*
X02915Y020307D01*
X029057Y0204D01*
X028943Y020466D01*
X028816Y0205D01*
D02*
G37*
G36*
X060366Y02045D02*
X060234D01*
X060107Y020416D01*
X059993Y02035D01*
X0599Y020257D01*
X059834Y020143D01*
X0598Y020016D01*
Y019884D01*
X059834Y019757D01*
X0599Y019643D01*
X059993Y01955D01*
X060107Y019484D01*
X060234Y01945D01*
X060366D01*
X060493Y019484D01*
X060607Y01955D01*
X0607Y019643D01*
X060766Y019757D01*
X0608Y019884D01*
Y020016D01*
X060766Y020143D01*
X0607Y020257D01*
X060607Y02035D01*
X060493Y020416D01*
X060366Y02045D01*
D02*
G37*
G36*
X057652Y03965D02*
X057508D01*
X057368Y039613D01*
X057242Y03954D01*
X05714Y039438D01*
X057067Y039312D01*
X05703Y039172D01*
Y039028D01*
X057067Y038888D01*
X05714Y038762D01*
X057242Y03866D01*
X057368Y038587D01*
X057508Y03855D01*
X057652D01*
X057792Y038587D01*
X057918Y03866D01*
X05802Y038762D01*
X058093Y038888D01*
X05813Y039028D01*
Y039172D01*
X058093Y039312D01*
X05802Y039438D01*
X057918Y03954D01*
X057792Y039613D01*
X057652Y03965D01*
D02*
G37*
G36*
X050372Y03615D02*
X050228D01*
X050088Y036113D01*
X049962Y03604D01*
X04986Y035938D01*
X049787Y035812D01*
X04975Y035672D01*
Y035528D01*
X049787Y035388D01*
X04986Y035262D01*
X049962Y03516D01*
X050088Y035087D01*
X050228Y03505D01*
X050372D01*
X050512Y035087D01*
X050638Y03516D01*
X05074Y035262D01*
X050813Y035388D01*
X05085Y035528D01*
Y035672D01*
X050813Y035812D01*
X05074Y035938D01*
X050638Y03604D01*
X050512Y036113D01*
X050372Y03615D01*
D02*
G37*
G36*
X050908Y032219D02*
X050792D01*
X050677Y032196D01*
X050569Y032151D01*
X050472Y032086D01*
X050389Y032003D01*
X050324Y031906D01*
X050279Y031798D01*
X050256Y031683D01*
Y031567D01*
X050279Y031452D01*
X050324Y031344D01*
X050389Y031247D01*
X050472Y031164D01*
X050569Y031099D01*
X050677Y031054D01*
X050792Y031031D01*
X050908D01*
X051023Y031054D01*
X051131Y031099D01*
X051228Y031164D01*
X051311Y031247D01*
X051376Y031344D01*
X051421Y031452D01*
X051444Y031567D01*
Y031683D01*
X051421Y031798D01*
X051376Y031906D01*
X051311Y032003D01*
X051228Y032086D01*
X051131Y032151D01*
X051023Y032196D01*
X050908Y032219D01*
D02*
G37*
G36*
X043758Y037334D02*
X043642D01*
X043527Y037311D01*
X043419Y037267D01*
X043322Y037202D01*
X043239Y037119D01*
X043174Y037022D01*
X043129Y036914D01*
X043106Y036799D01*
Y036682D01*
X043129Y036567D01*
X043174Y036459D01*
X043239Y036362D01*
X043322Y036279D01*
X043419Y036214D01*
X043527Y03617D01*
X043642Y036147D01*
X043758D01*
X043873Y03617D01*
X043981Y036214D01*
X044078Y036279D01*
X044161Y036362D01*
X044226Y036459D01*
X044271Y036567D01*
X044294Y036682D01*
Y036799D01*
X044271Y036914D01*
X044226Y037022D01*
X044161Y037119D01*
X044078Y037202D01*
X043981Y037267D01*
X043873Y037311D01*
X043758Y037334D01*
D02*
G37*
G36*
X041744Y031253D02*
X040556D01*
Y030065D01*
X041744D01*
Y031253D01*
D02*
G37*
G36*
X041208Y027135D02*
X041092D01*
X040977Y027112D01*
X040869Y027067D01*
X040772Y027002D01*
X040689Y026919D01*
X040624Y026822D01*
X040579Y026714D01*
X040556Y026599D01*
Y026482D01*
X040579Y026368D01*
X040624Y02626D01*
X040689Y026162D01*
X040772Y02608D01*
X040869Y026015D01*
X040977Y02597D01*
X041092Y025947D01*
X041208D01*
X041323Y02597D01*
X041431Y026015D01*
X041528Y02608D01*
X041611Y026162D01*
X041676Y02626D01*
X041721Y026368D01*
X041744Y026482D01*
Y026599D01*
X041721Y026714D01*
X041676Y026822D01*
X041611Y026919D01*
X041528Y027002D01*
X041431Y027067D01*
X041323Y027112D01*
X041208Y027135D01*
D02*
G37*
%LPD*%
D43*
X031Y0332D02*
X03275D01*
X0303D02*
X031D01*
X0356Y03675D02*
Y039111D01*
X0552Y04078D02*
Y041175D01*
X029724Y022987D02*
X03226Y025524D01*
Y027D01*
X03396Y0287D01*
X035D01*
X03558Y02812D01*
Y02692D02*
Y02812D01*
Y02692D02*
X037Y0255D01*
X0375D01*
X0409Y034769D02*
X041669Y034D01*
X04446D01*
X04496Y0345D01*
Y03864D01*
X04717Y04085D01*
X047387Y0223D02*
X04995D01*
X034448Y022987D02*
X044231D01*
X03431Y0314D02*
X035478D01*
X03413Y03158D02*
X03431Y0314D01*
X03709Y04125D02*
X03779Y04195D01*
X052675D01*
X05345Y041175D01*
X05212Y0356D02*
X05286Y03634D01*
X05502D01*
X05576Y0356D01*
X0356Y03675D02*
X035603D01*
X0356Y039111D02*
X036081Y039592D01*
Y041603D01*
X036927Y04245D01*
X05859D01*
X0601Y04094D01*
Y03849D02*
Y04094D01*
X05923Y03762D02*
X0601Y03849D01*
X053Y03762D02*
X05923D01*
X05142Y03604D02*
X053Y03762D01*
X05142Y03472D02*
Y03604D01*
Y03472D02*
X05217Y03397D01*
X056213Y034233D02*
X05758Y0356D01*
X053979Y034233D02*
X056213D01*
X05334Y033594D02*
X053979Y034233D01*
X030787Y04051D02*
X03228D01*
X03246Y04069D01*
X034547D01*
X035337Y0399D01*
X032145D02*
X033963D01*
X030787Y038542D02*
X032145Y0399D01*
X035003Y03323D02*
X03525D01*
X034253Y03398D02*
X035003Y03323D01*
X0325Y03398D02*
X034253D01*
X03153Y03495D02*
X0325Y03398D01*
X0295Y03495D02*
X03153D01*
X02882Y03427D02*
X0295Y03495D01*
X02882Y0225D02*
Y03427D01*
Y0225D02*
X02924Y02208D01*
X03025D01*
X032232Y024062D01*
X045446D01*
X045757Y02375D01*
X049145D01*
X04934Y023945D01*
X050705D01*
X05235Y0223D01*
X034448Y025922D02*
Y027791D01*
Y025922D02*
X035808Y024562D01*
X046257D01*
X046562Y024256D01*
X048653D01*
X048842Y024445D01*
X056005D01*
X05715Y0233D01*
X0375Y0345D02*
X0392D01*
X046006Y027694D01*
Y025812D02*
Y027694D01*
Y025812D02*
X047062Y024756D01*
X048104D01*
X048478Y02513D01*
X05052D01*
X05394Y0356D02*
X05464Y0349D01*
X05611D01*
X05646Y03525D01*
Y03576D01*
X057Y0363D01*
X059D01*
X0606Y0379D01*
Y04118D01*
X05883Y04295D02*
X0606Y04118D01*
X03117Y04295D02*
X05883D01*
X02994Y04172D02*
X03117Y04295D01*
X02994Y03809D02*
Y04172D01*
Y03809D02*
X031Y03703D01*
X03139D01*
X03206Y0377D01*
X03365D01*
X03435Y037D01*
Y03459D02*
Y037D01*
Y03459D02*
X035052Y033888D01*
X036083D01*
X03649Y03348D01*
Y032D02*
Y03348D01*
Y032D02*
X03699Y0315D01*
X0375D01*
X035603Y03575D02*
X03621D01*
X036581Y036121D01*
Y039831D01*
X0375Y04075D01*
X04587D01*
X04657Y04145D01*
X04777D01*
X04932Y0399D01*
X05314D01*
X05394Y0391D01*
X059Y0271D02*
Y02829D01*
X05907Y02836D01*
Y02939D01*
X05755Y03091D02*
X05907Y02939D01*
X055044Y03091D02*
X05755D01*
X053351Y032603D02*
X055044Y03091D01*
X05797Y02946D02*
X05847Y02896D01*
X051Y02946D02*
X05797D01*
X04953Y03093D02*
X051Y02946D01*
X04953Y03093D02*
Y034D01*
X04803Y0355D02*
X04953Y034D01*
X0475Y0355D02*
X04803D01*
X029Y0357D02*
X0331D01*
X02832Y03502D02*
X029Y0357D01*
X02832Y02181D02*
Y03502D01*
Y02181D02*
X029Y02113D01*
X0575D01*
X05808Y02171D01*
Y0252D01*
X03693Y0265D02*
X0375D01*
X03643Y027D02*
X03693Y0265D01*
X03643Y027D02*
Y02857D01*
X0358Y0292D02*
X03643Y02857D01*
X032Y0292D02*
X0358D01*
X0317Y0295D02*
X032Y0292D01*
X0317Y0295D02*
Y0325D01*
X031Y0332D02*
X0317Y0325D01*
X03275Y0332D02*
X03305Y0329D01*
Y03238D02*
Y0329D01*
X0552Y041175D02*
X05545D01*
X05485Y04043D02*
X0552Y04078D01*
X05485Y03861D02*
Y04043D01*
X05464Y0384D02*
X05485Y03861D01*
X05003Y0384D02*
X05464D01*
X04993Y0385D02*
X05003Y0384D01*
X0475Y0385D02*
X04993D01*
X03232Y0314D02*
X03305D01*
X03232Y03D02*
Y0314D01*
Y03D02*
X03262Y0297D01*
X03601D01*
X03621Y0295D01*
X0375D01*
X054757Y02579D02*
X055967Y027D01*
X04946Y02579D02*
X054757D01*
X04875Y0265D02*
X04946Y02579D01*
X04875Y0265D02*
Y027D01*
X04825Y0275D02*
X04875Y027D01*
X0475Y0275D02*
X04825D01*
X0475Y0285D02*
X051433D01*
X052933Y027D01*
X0409Y03675D02*
X042891Y034759D01*
X0437D01*
X05636Y032591D02*
X057399Y03363D01*
X05743D01*
X0594Y0356D01*
X0565Y02165D02*
X05715Y0223D01*
X0506Y02165D02*
X0565D01*
X04995Y0223D02*
X0506Y02165D01*
X03305Y03039D02*
X035478D01*
D44*
X02875Y02D02*
D03*
X0603Y01995D02*
D03*
X0601Y04295D02*
D03*
X02865Y0431D02*
D03*
X053351Y032603D02*
D03*
X05636Y032591D02*
D03*
Y033594D02*
D03*
D45*
X030787Y04051D02*
D03*
Y038542D02*
D03*
D46*
X035478Y03238D02*
D03*
Y0314D02*
D03*
Y03039D02*
D03*
X03305Y03238D02*
D03*
Y0314D02*
D03*
Y03039D02*
D03*
D47*
X0331Y0367D02*
D03*
Y0357D02*
D03*
Y0347D02*
D03*
X035603Y03675D02*
D03*
Y03575D02*
D03*
Y03475D02*
D03*
D48*
X0303Y0322D02*
D03*
D49*
Y0332D02*
D03*
Y0342D02*
D03*
D50*
X0499Y027D02*
D03*
X05345Y041175D02*
D03*
X052933Y027D02*
D03*
X055967D02*
D03*
X059Y0271D02*
D03*
D51*
X0509Y027D02*
D03*
X05445Y041175D02*
D03*
X05545D02*
D03*
X05645D02*
D03*
X033963Y0399D02*
D03*
X035337D02*
D03*
X0409Y03675D02*
D03*
Y034769D02*
D03*
X0437Y036741D02*
D03*
Y034759D02*
D03*
X053933Y027D02*
D03*
X056967D02*
D03*
X04115Y026541D02*
D03*
X06Y0271D02*
D03*
D52*
X05085Y040725D02*
D03*
X05905D02*
D03*
Y031625D02*
D03*
X05085D02*
D03*
D53*
X0503Y0356D02*
D03*
Y0391D02*
D03*
X05212Y0356D02*
D03*
Y0391D02*
D03*
X05576Y0356D02*
D03*
Y0391D02*
D03*
X05394Y0356D02*
D03*
Y0391D02*
D03*
X05758Y0356D02*
D03*
Y0391D02*
D03*
X0594Y0356D02*
D03*
Y0391D02*
D03*
D54*
X0475Y0365D02*
D03*
Y0335D02*
D03*
Y0345D02*
D03*
Y0355D02*
D03*
Y0325D02*
D03*
Y0315D02*
D03*
Y0285D02*
D03*
Y0275D02*
D03*
Y0265D02*
D03*
Y0255D02*
D03*
Y0395D02*
D03*
Y0375D02*
D03*
Y0295D02*
D03*
Y0305D02*
D03*
Y0385D02*
D03*
X0375Y0315D02*
D03*
Y0295D02*
D03*
Y0305D02*
D03*
Y0325D02*
D03*
Y0335D02*
D03*
Y0345D02*
D03*
Y0355D02*
D03*
Y0365D02*
D03*
Y0375D02*
D03*
Y0385D02*
D03*
Y0395D02*
D03*
Y0275D02*
D03*
Y0285D02*
D03*
Y0265D02*
D03*
D55*
Y0255D02*
D03*
D56*
X04995Y0223D02*
D03*
X05235D02*
D03*
X05475D02*
D03*
X05715D02*
D03*
D57*
X04995Y0233D02*
D03*
X05235D02*
D03*
X05475D02*
D03*
X05715D02*
D03*
D58*
X029724Y027791D02*
D03*
X034448Y022987D02*
D03*
X029724D02*
D03*
X032086Y0222D02*
D03*
X034448Y027791D02*
D03*
D59*
X05334Y033594D02*
D03*
D60*
X04115Y030659D02*
D03*
D61*
X04717Y04085D02*
D03*
X047387Y0223D02*
D03*
X044231Y022987D02*
D03*
X03413Y03158D02*
D03*
X03709Y04125D02*
D03*
X05217Y03397D02*
D03*
X03525Y03323D02*
D03*
X05052Y02513D02*
D03*
X05847Y02896D02*
D03*
X05808Y0252D02*
D03*
M02*
