G04*
G04 #@! TF.GenerationSoftware,Altium Limited,Altium Designer,21.3.2 (30)*
G04*
G04 Layer_Color=8388736*
%FSTAX24Y24*%
%MOIN*%
G70*
G04*
G04 #@! TF.SameCoordinates,FD8D8422-8178-4DE3-8D18-A0C0927E7843*
G04*
G04*
G04 #@! TF.FilePolarity,Negative*
G04*
G01*
G75*
%ADD24C,0.0680*%
%ADD25C,0.1064*%
%ADD26O,0.0830X0.0730*%
%ADD27O,0.1080X0.0740*%
%ADD28R,0.1080X0.0880*%
%ADD29O,0.1080X0.0880*%
%ADD30R,0.0867X0.0867*%
%ADD31C,0.0867*%
%ADD32C,0.0867*%
%ADD33C,0.0866*%
%ADD34C,0.0780*%
%ADD35O,0.1064X0.0867*%
%ADD36R,0.1064X0.0867*%
%ADD37R,0.0671X0.0671*%
%ADD38C,0.0671*%
%ADD39C,0.1140*%
%ADD40R,0.0680X0.0680*%
%ADD41R,0.0867X0.0867*%
%ADD42C,0.0580*%
D24*
X02875Y02D02*
D03*
X0603Y01995D02*
D03*
X0601Y04295D02*
D03*
X02865Y0431D02*
D03*
X053351Y032603D02*
D03*
X05636Y032591D02*
D03*
Y033594D02*
D03*
D25*
X030787Y04051D02*
D03*
Y038542D02*
D03*
D26*
X035478Y03238D02*
D03*
Y0314D02*
D03*
Y03039D02*
D03*
X03305Y03238D02*
D03*
Y0314D02*
D03*
Y03039D02*
D03*
D27*
X0331Y0367D02*
D03*
Y0357D02*
D03*
Y0347D02*
D03*
X035603Y03675D02*
D03*
Y03575D02*
D03*
Y03475D02*
D03*
D28*
X0303Y0322D02*
D03*
D29*
Y0332D02*
D03*
Y0342D02*
D03*
D30*
X0499Y027D02*
D03*
X05345Y041175D02*
D03*
X052933Y027D02*
D03*
X055967D02*
D03*
X059Y0271D02*
D03*
D31*
X0509Y027D02*
D03*
X05445Y041175D02*
D03*
X05545D02*
D03*
X05645D02*
D03*
X0409Y03675D02*
D03*
Y034769D02*
D03*
X0437Y036741D02*
D03*
Y034759D02*
D03*
X053933Y027D02*
D03*
X056967D02*
D03*
X04115Y026541D02*
D03*
X06Y0271D02*
D03*
D32*
X05085Y040725D02*
D03*
X05905D02*
D03*
Y031625D02*
D03*
X05085D02*
D03*
D33*
X033963Y0399D02*
D03*
X035337D02*
D03*
D34*
X0503Y0356D02*
D03*
Y0391D02*
D03*
X05212Y0356D02*
D03*
Y0391D02*
D03*
X05576Y0356D02*
D03*
Y0391D02*
D03*
X05394Y0356D02*
D03*
Y0391D02*
D03*
X05758Y0356D02*
D03*
Y0391D02*
D03*
X0594Y0356D02*
D03*
Y0391D02*
D03*
D35*
X0475Y0365D02*
D03*
Y0335D02*
D03*
Y0345D02*
D03*
Y0355D02*
D03*
Y0325D02*
D03*
Y0315D02*
D03*
Y0285D02*
D03*
Y0275D02*
D03*
Y0265D02*
D03*
Y0255D02*
D03*
Y0395D02*
D03*
Y0375D02*
D03*
Y0295D02*
D03*
Y0305D02*
D03*
Y0385D02*
D03*
X0375Y0315D02*
D03*
Y0295D02*
D03*
Y0305D02*
D03*
Y0325D02*
D03*
Y0335D02*
D03*
Y0345D02*
D03*
Y0355D02*
D03*
Y0365D02*
D03*
Y0375D02*
D03*
Y0385D02*
D03*
Y0395D02*
D03*
Y0275D02*
D03*
Y0285D02*
D03*
Y0265D02*
D03*
D36*
Y0255D02*
D03*
D37*
X04995Y0223D02*
D03*
X05235D02*
D03*
X05475D02*
D03*
X05715D02*
D03*
D38*
X04995Y0233D02*
D03*
X05235D02*
D03*
X05475D02*
D03*
X05715D02*
D03*
D39*
X029724Y027791D02*
D03*
X034448Y022987D02*
D03*
X029724D02*
D03*
X032086Y0222D02*
D03*
X034448Y027791D02*
D03*
D40*
X05334Y033594D02*
D03*
D41*
X04115Y030659D02*
D03*
D42*
X04717Y04085D02*
D03*
X047387Y0223D02*
D03*
X044231Y022987D02*
D03*
X03413Y03158D02*
D03*
X03709Y04125D02*
D03*
X05217Y03397D02*
D03*
X03525Y03323D02*
D03*
X05052Y02513D02*
D03*
X05847Y02896D02*
D03*
X05808Y0252D02*
D03*
M02*
