G04*
G04 #@! TF.GenerationSoftware,Altium Limited,Altium Designer,21.3.2 (30)*
G04*
G04 Layer_Color=128*
%FSTAX24Y24*%
%MOIN*%
G70*
G04*
G04 #@! TF.SameCoordinates,FD8D8422-8178-4DE3-8D18-A0C0927E7843*
G04*
G04*
G04 #@! TF.FilePolarity,Positive*
G04*
G01*
G75*
%ADD63C,0.0020*%
D63*
X028734Y02D02*
X028766D01*
X02875Y019984D02*
Y020016D01*
X060284Y01995D02*
X060316D01*
X0603Y019934D02*
Y019966D01*
X060084Y04295D02*
X060116D01*
X0601Y042934D02*
Y042966D01*
X028634Y0431D02*
X028666D01*
X02865Y043084D02*
Y043116D01*
X03059Y04051D02*
X030984D01*
X030787Y040314D02*
Y040707D01*
X03059Y038542D02*
X030984D01*
X030787Y038345D02*
Y038739D01*
X035298Y03238D02*
X035658D01*
X035478Y0322D02*
Y03256D01*
X035298Y0314D02*
X035658D01*
X035478Y03122D02*
Y03158D01*
X035298Y03039D02*
X035658D01*
X035478Y03021D02*
Y03057D01*
X03287Y03238D02*
X03323D01*
X03305Y0322D02*
Y03256D01*
X03287Y0314D02*
X03323D01*
X03305Y03122D02*
Y03158D01*
X03287Y03039D02*
X03323D01*
X03305Y03021D02*
Y03057D01*
X03294Y0367D02*
X03326D01*
X0331Y03654D02*
Y03686D01*
X03294Y0357D02*
X03326D01*
X0331Y03554D02*
Y03586D01*
X03294Y0347D02*
X03326D01*
X0331Y03454D02*
Y03486D01*
X035443Y03675D02*
X035763D01*
X035603Y03659D02*
Y03691D01*
X035443Y03575D02*
X035763D01*
X035603Y03559D02*
Y03591D01*
X035443Y03475D02*
X035763D01*
X035603Y03459D02*
Y03491D01*
X030105Y0322D02*
X030495D01*
X0303Y032005D02*
Y032395D01*
X030105Y0332D02*
X030495D01*
X0303Y033005D02*
Y033395D01*
X030105Y0342D02*
X030495D01*
X0303Y034005D02*
Y034395D01*
X049703Y027D02*
X050097D01*
X0499Y026803D02*
Y027197D01*
X050703Y027D02*
X051097D01*
X0509Y026803D02*
Y027197D01*
X050456Y040725D02*
X051244D01*
X05085Y040331D02*
Y041119D01*
X058656Y040725D02*
X059444D01*
X05905Y040331D02*
Y041119D01*
X058656Y031625D02*
X059444D01*
X05905Y031231D02*
Y032019D01*
X050456Y031625D02*
X051244D01*
X05085Y031231D02*
Y032019D01*
X053253Y041175D02*
X053647D01*
X05345Y040978D02*
Y041372D01*
X054253Y041175D02*
X054647D01*
X05445Y040978D02*
Y041372D01*
X055253Y041175D02*
X055647D01*
X05545Y040978D02*
Y041372D01*
X056253Y041175D02*
X056647D01*
X05645Y040978D02*
Y041372D01*
X033766Y0399D02*
X03416D01*
X033963Y039703D02*
Y040097D01*
X03514Y0399D02*
X035534D01*
X035337Y039703D02*
Y040097D01*
X040703Y03675D02*
X041097D01*
X0409Y036553D02*
Y036947D01*
X040703Y034769D02*
X041097D01*
X0409Y034572D02*
Y034966D01*
X043503Y036741D02*
X043897D01*
X0437Y036544D02*
Y036937D01*
X043503Y034759D02*
X043897D01*
X0437Y034563D02*
Y034956D01*
X050145Y0356D02*
X050455D01*
X0503Y035445D02*
Y035755D01*
X050145Y0391D02*
X050455D01*
X0503Y038945D02*
Y039255D01*
X047303Y0365D02*
X047697D01*
X0475Y036303D02*
Y036697D01*
X047303Y0335D02*
X047697D01*
X0475Y033303D02*
Y033697D01*
X047303Y0345D02*
X047697D01*
X0475Y034303D02*
Y034697D01*
X047303Y0355D02*
X047697D01*
X0475Y035303D02*
Y035697D01*
X047303Y0325D02*
X047697D01*
X0475Y032303D02*
Y032697D01*
X047303Y0315D02*
X047697D01*
X0475Y031303D02*
Y031697D01*
X047303Y0285D02*
X047697D01*
X0475Y028303D02*
Y028697D01*
X047303Y0275D02*
X047697D01*
X0475Y027303D02*
Y027697D01*
X047303Y0265D02*
X047697D01*
X0475Y026303D02*
Y026697D01*
X047303Y0255D02*
X047697D01*
X0475Y025303D02*
Y025697D01*
X047303Y0395D02*
X047697D01*
X0475Y039303D02*
Y039697D01*
X047303Y0375D02*
X047697D01*
X0475Y037303D02*
Y037697D01*
X047303Y0295D02*
X047697D01*
X0475Y029303D02*
Y029697D01*
X047303Y0305D02*
X047697D01*
X0475Y030303D02*
Y030697D01*
X047303Y0385D02*
X047697D01*
X0475Y038303D02*
Y038697D01*
X037303Y0315D02*
X037697D01*
X0375Y031303D02*
Y031697D01*
X037303Y0295D02*
X037697D01*
X0375Y029303D02*
Y029697D01*
X037303Y0305D02*
X037697D01*
X0375Y030303D02*
Y030697D01*
X037303Y0325D02*
X037697D01*
X0375Y032303D02*
Y032697D01*
X037303Y0335D02*
X037697D01*
X0375Y033303D02*
Y033697D01*
X037303Y0345D02*
X037697D01*
X0375Y034303D02*
Y034697D01*
X037303Y0355D02*
X037697D01*
X0375Y035303D02*
Y035697D01*
X037303Y0365D02*
X037697D01*
X0375Y036303D02*
Y036697D01*
X037303Y0375D02*
X037697D01*
X0375Y037303D02*
Y037697D01*
X037303Y0385D02*
X037697D01*
X0375Y038303D02*
Y038697D01*
X037303Y0395D02*
X037697D01*
X0375Y039303D02*
Y039697D01*
X037303Y0255D02*
X037697D01*
X0375Y025303D02*
Y025697D01*
X037303Y0275D02*
X037697D01*
X0375Y027303D02*
Y027697D01*
X037303Y0285D02*
X037697D01*
X0375Y028303D02*
Y028697D01*
X037303Y0265D02*
X037697D01*
X0375Y026303D02*
Y026697D01*
X049773Y0223D02*
X050127D01*
X04995Y022123D02*
Y022477D01*
X049773Y0233D02*
X050127D01*
X04995Y023123D02*
Y023477D01*
X052173Y0223D02*
X052527D01*
X05235Y022123D02*
Y022477D01*
X052173Y0233D02*
X052527D01*
X05235Y023123D02*
Y023477D01*
X051965Y0356D02*
X052275D01*
X05212Y035445D02*
Y035755D01*
X051965Y0391D02*
X052275D01*
X05212Y038945D02*
Y039255D01*
X052736Y027D02*
X05313D01*
X052933Y026803D02*
Y027197D01*
X053736Y027D02*
X05413D01*
X053933Y026803D02*
Y027197D01*
X055605Y0356D02*
X055915D01*
X05576Y035445D02*
Y035755D01*
X055605Y0391D02*
X055915D01*
X05576Y038945D02*
Y039255D01*
X053785Y0356D02*
X054095D01*
X05394Y035445D02*
Y035755D01*
X053785Y0391D02*
X054095D01*
X05394Y038945D02*
Y039255D01*
X05577Y027D02*
X056164D01*
X055967Y026803D02*
Y027197D01*
X05677Y027D02*
X057164D01*
X056967Y026803D02*
Y027197D01*
X054573Y0223D02*
X054927D01*
X05475Y022123D02*
Y022477D01*
X054573Y0233D02*
X054927D01*
X05475Y023123D02*
Y023477D01*
X029424Y027791D02*
X030024D01*
X029724Y027491D02*
Y028091D01*
X034148Y022987D02*
X034748D01*
X034448Y022687D02*
Y023287D01*
X029424Y022987D02*
X030024D01*
X029724Y022687D02*
Y023287D01*
X031786Y0222D02*
X032386D01*
X032086Y0219D02*
Y0225D01*
X034148Y027791D02*
X034748D01*
X034448Y027491D02*
Y028091D01*
X056973Y0223D02*
X057327D01*
X05715Y022123D02*
Y022477D01*
X056973Y0233D02*
X057327D01*
X05715Y023123D02*
Y023477D01*
X053143Y033594D02*
X053536D01*
X05334Y033397D02*
Y033791D01*
X053155Y032603D02*
X053548D01*
X053351Y032406D02*
Y0328D01*
X056164Y032591D02*
X056557D01*
X05636Y032394D02*
Y032788D01*
X056164Y033594D02*
X056557D01*
X05636Y033397D02*
Y033791D01*
X057425Y0356D02*
X057735D01*
X05758Y035445D02*
Y035755D01*
X057425Y0391D02*
X057735D01*
X05758Y038945D02*
Y039255D01*
X040914Y026541D02*
X041386D01*
X04115Y026305D02*
Y026777D01*
X040914Y030659D02*
X041386D01*
X04115Y030423D02*
Y030895D01*
X058803Y0271D02*
X059197D01*
X059Y026903D02*
Y027297D01*
X059803Y0271D02*
X060197D01*
X06Y026903D02*
Y027297D01*
X059245Y0356D02*
X059555D01*
X0594Y035445D02*
Y035755D01*
X059245Y0391D02*
X059555D01*
X0594Y038945D02*
Y039255D01*
X04703Y04085D02*
X04731D01*
X04717Y04071D02*
Y04099D01*
X047247Y0223D02*
X047527D01*
X047387Y02216D02*
Y02244D01*
X044091Y022987D02*
X044371D01*
X044231Y022847D02*
Y023127D01*
X03399Y03158D02*
X03427D01*
X03413Y03144D02*
Y03172D01*
X03695Y04125D02*
X03723D01*
X03709Y04111D02*
Y04139D01*
X05203Y03397D02*
X05231D01*
X05217Y03383D02*
Y03411D01*
X03511Y03323D02*
X03539D01*
X03525Y03309D02*
Y03337D01*
X05038Y02513D02*
X05066D01*
X05052Y02499D02*
Y02527D01*
X05833Y02896D02*
X05861D01*
X05847Y02882D02*
Y0291D01*
X05794Y0252D02*
X05822D01*
X05808Y02506D02*
Y02534D01*
M02*
