G04*
G04 #@! TF.GenerationSoftware,Altium Limited,Altium Designer,21.3.2 (30)*
G04*
G04 Layer_Physical_Order=1*
G04 Layer_Color=255*
%FSTAX24Y24*%
%MOIN*%
G70*
G04*
G04 #@! TF.SameCoordinates,FD8D8422-8178-4DE3-8D18-A0C0927E7843*
G04*
G04*
G04 #@! TF.FilePolarity,Positive*
G04*
G01*
G75*
%ADD43C,0.0300*%
%ADD44C,0.0600*%
%ADD45C,0.0984*%
%ADD46O,0.0750X0.0650*%
%ADD47O,0.1000X0.0660*%
%ADD48R,0.1000X0.0800*%
%ADD49O,0.1000X0.0800*%
%ADD50R,0.0787X0.0787*%
%ADD51C,0.0787*%
%ADD52C,0.0787*%
%ADD53C,0.0700*%
%ADD54O,0.0984X0.0787*%
%ADD55R,0.0984X0.0787*%
%ADD56R,0.0591X0.0591*%
%ADD57C,0.0591*%
%ADD58C,0.1100*%
%ADD59R,0.0600X0.0600*%
%ADD60R,0.0787X0.0787*%
%ADD61C,0.0500*%
G36*
X06095Y01925D02*
X02785D01*
Y04375D01*
X06095D01*
Y01925D01*
D02*
G37*
%LPC*%
G36*
X028716Y0436D02*
X028584D01*
X028457Y043566D01*
X028343Y0435D01*
X02825Y043407D01*
X028184Y043293D01*
X02815Y043166D01*
Y043034D01*
X028184Y042907D01*
X02825Y042793D01*
X028343Y0427D01*
X028457Y042634D01*
X028584Y0426D01*
X028716D01*
X028843Y042634D01*
X028957Y0427D01*
X02905Y042793D01*
X029116Y042907D01*
X02915Y043034D01*
Y043166D01*
X029116Y043293D01*
X02905Y043407D01*
X028957Y0435D01*
X028843Y043566D01*
X028716Y0436D01*
D02*
G37*
G36*
X060166Y04345D02*
X060034D01*
X059907Y043416D01*
X059793Y04335D01*
X0597Y043257D01*
X059634Y043143D01*
X0596Y043016D01*
Y042884D01*
X059634Y042757D01*
X0597Y042643D01*
X059793Y04255D01*
X059907Y042484D01*
X060034Y04245D01*
X060166D01*
X060293Y042484D01*
X060407Y04255D01*
X0605Y042643D01*
X060566Y042757D01*
X0606Y042884D01*
Y043016D01*
X060566Y043143D01*
X0605Y043257D01*
X060407Y04335D01*
X060293Y043416D01*
X060166Y04345D01*
D02*
G37*
G36*
X033Y042823D02*
X032909Y042811D01*
X032823Y042776D01*
X03275Y04272D01*
X03138Y04135D01*
X031324Y041277D01*
X031289Y041191D01*
X031277Y0411D01*
Y041064D01*
X031231Y041045D01*
X031228Y041048D01*
X031114Y041124D01*
X030989Y041176D01*
X030855Y041203D01*
X030718D01*
X030585Y041176D01*
X030459Y041124D01*
X030345Y041048D01*
X030249Y040952D01*
X030173Y040838D01*
X030121Y040712D01*
X030095Y040579D01*
Y040442D01*
X030115Y040338D01*
X02969Y039913D01*
X029634Y03984D01*
X029599Y039755D01*
X029587Y039664D01*
Y03576D01*
X029599Y035669D01*
X029634Y035583D01*
X02969Y03551D01*
X030352Y034849D01*
X030333Y034803D01*
X0302D01*
X030082Y034791D01*
X029969Y034757D01*
X029865Y034701D01*
X029774Y034626D01*
X029707Y034545D01*
X029679Y034541D01*
X029593Y034506D01*
X02952Y03445D01*
X02857Y0335D01*
X028514Y033427D01*
X028479Y033341D01*
X028467Y03325D01*
Y023891D01*
X028479Y0238D01*
X028514Y023715D01*
X02857Y023641D01*
X029003Y023208D01*
X029002Y023206D01*
X028974Y023061D01*
Y022914D01*
X029002Y022769D01*
X029059Y022632D01*
X029141Y022509D01*
X029246Y022405D01*
X029368Y022323D01*
X029505Y022266D01*
X02965Y022237D01*
X029798D01*
X029942Y022266D01*
X030079Y022323D01*
X030202Y022405D01*
X030306Y022509D01*
X030388Y022632D01*
X030445Y022769D01*
X030474Y022914D01*
Y023061D01*
X030445Y023206D01*
X030388Y023343D01*
X030306Y023466D01*
X030202Y02357D01*
X030079Y023652D01*
X029942Y023709D01*
X029798Y023737D01*
X02965D01*
X029505Y023709D01*
X029503Y023708D01*
X029173Y024037D01*
Y027215D01*
X029219Y027235D01*
X029246Y027208D01*
X029369Y027126D01*
X029505Y027069D01*
X02965Y027041D01*
X029798D01*
X029943Y027069D01*
X030079Y027126D01*
X030202Y027208D01*
X030306Y027312D01*
X030389Y027435D01*
X030445Y027572D01*
X030474Y027717D01*
Y027864D01*
X030445Y028009D01*
X030389Y028146D01*
X030306Y028269D01*
X030202Y028373D01*
X030079Y028455D01*
X029943Y028512D01*
X029798Y028541D01*
X02965D01*
X029505Y028512D01*
X029369Y028455D01*
X029246Y028373D01*
X029219Y028347D01*
X029173Y028366D01*
Y033104D01*
X029783Y033714D01*
X029795Y033709D01*
X029804Y033651D01*
X029774Y033626D01*
X029699Y033535D01*
X029643Y033431D01*
X029609Y033318D01*
X029597Y0332D01*
X029609Y033082D01*
X029643Y032969D01*
X029699Y032865D01*
X029715Y032845D01*
X029694Y0328D01*
X0296D01*
Y0316D01*
X031D01*
Y031635D01*
X031046Y031655D01*
X031317Y031384D01*
Y022616D01*
X031329Y022525D01*
X031364Y022439D01*
X03137Y022432D01*
X031365Y022419D01*
X031336Y022274D01*
Y022126D01*
X031365Y021981D01*
X031421Y021845D01*
X031503Y021722D01*
X031608Y021617D01*
X031731Y021535D01*
X031867Y021479D01*
X032012Y02145D01*
X03216D01*
X032305Y021479D01*
X032441Y021535D01*
X032564Y021617D01*
X032668Y021722D01*
X032751Y021845D01*
X032807Y021981D01*
X032836Y022126D01*
Y022274D01*
X032807Y022419D01*
X032751Y022555D01*
X032668Y022678D01*
X032564Y022783D01*
X032441Y022865D01*
X032305Y022921D01*
X03216Y02295D01*
X032023D01*
Y024848D01*
X032069Y024867D01*
X033728Y023208D01*
X033727Y023206D01*
X033698Y023061D01*
Y022914D01*
X033727Y022769D01*
X033783Y022632D01*
X033866Y022509D01*
X03397Y022405D01*
X034093Y022323D01*
X034229Y022266D01*
X034374Y022237D01*
X034522D01*
X034667Y022266D01*
X034803Y022323D01*
X034926Y022405D01*
X035031Y022509D01*
X035113Y022632D01*
X035169Y022769D01*
X035198Y022914D01*
Y023061D01*
X035169Y023206D01*
X035113Y023343D01*
X035031Y023466D01*
X034926Y02357D01*
X034803Y023652D01*
X034667Y023709D01*
X034522Y023737D01*
X034374D01*
X034229Y023709D01*
X034227Y023708D01*
X032603Y025332D01*
Y02997D01*
X032653Y029994D01*
X032735Y029931D01*
X032863Y029879D01*
X033Y02986D01*
X0331D01*
X033237Y029879D01*
X033365Y029931D01*
X033474Y030016D01*
X033559Y030125D01*
X033611Y030253D01*
X03363Y03039D01*
X033611Y030527D01*
X033559Y030655D01*
X033474Y030764D01*
X033365Y030849D01*
X033313Y03087D01*
Y03092D01*
X033365Y030941D01*
X033474Y031026D01*
X033559Y031135D01*
X033611Y031263D01*
X03363Y0314D01*
X033611Y031537D01*
X033559Y031665D01*
X033474Y031774D01*
X033365Y031859D01*
X033349Y031865D01*
Y031915D01*
X033365Y031921D01*
X033474Y032006D01*
X033559Y032115D01*
X033611Y032243D01*
X03363Y03238D01*
X033611Y032517D01*
X033559Y032645D01*
X033474Y032754D01*
X033403Y032809D01*
Y03348D01*
X033406Y033483D01*
X033441Y033569D01*
X033453Y03366D01*
Y034202D01*
X033537Y034237D01*
X033648Y034322D01*
X033727Y034425D01*
X033777Y034419D01*
Y031863D01*
X03377Y031856D01*
X033711Y031754D01*
X03368Y031639D01*
Y031521D01*
X033711Y031406D01*
X03377Y031304D01*
X033854Y03122D01*
X033956Y031161D01*
X034071Y03113D01*
X034189D01*
X034304Y031161D01*
X034354Y03119D01*
X034397Y031165D01*
Y03064D01*
X034409Y030549D01*
X034444Y030463D01*
X0345Y03039D01*
X03475Y03014D01*
X034823Y030084D01*
X034909Y030049D01*
X035Y030037D01*
X035037D01*
X035053Y030016D01*
X035163Y029931D01*
X035291Y029879D01*
X035428Y02986D01*
X035528D01*
X035665Y029879D01*
X035793Y029931D01*
X035902Y030016D01*
X035986Y030125D01*
X036039Y030253D01*
X036087Y030243D01*
Y02513D01*
X036099Y025039D01*
X036134Y024953D01*
X03619Y02488D01*
X041166Y019905D01*
X041239Y019849D01*
X041324Y019814D01*
X041415Y019802D01*
X054805D01*
X054896Y019814D01*
X054981Y019849D01*
X055054Y019905D01*
X05636Y02121D01*
X056416Y021283D01*
X056451Y021369D01*
X056463Y02146D01*
Y023414D01*
X057146Y024097D01*
X05818D01*
X058271Y024109D01*
X058357Y024144D01*
X05843Y0242D01*
X06025Y02602D01*
X060306Y026093D01*
X060341Y026179D01*
X060353Y02627D01*
Y026622D01*
X060378Y026639D01*
X060461Y026722D01*
X060526Y026819D01*
X060571Y026927D01*
X060594Y027042D01*
Y027158D01*
X060571Y027273D01*
X060526Y027381D01*
X060461Y027478D01*
X060378Y027561D01*
X060281Y027626D01*
X060173Y027671D01*
X060058Y027694D01*
X059942D01*
X059827Y027671D01*
X059719Y027626D01*
X059644Y027576D01*
X059594Y027603D01*
Y027694D01*
X058406D01*
Y026506D01*
X059594D01*
Y026543D01*
X059644Y026571D01*
X059647Y026569D01*
Y026416D01*
X058557Y025326D01*
X058509Y025339D01*
X058499Y025374D01*
X05844Y025476D01*
X058356Y02556D01*
X058254Y025619D01*
X058139Y02565D01*
X058129D01*
X058073Y025706D01*
Y028652D01*
X058123Y028671D01*
X058194Y0286D01*
X058296Y028541D01*
X058411Y02851D01*
X058529D01*
X058644Y028541D01*
X058746Y0286D01*
X05883Y028684D01*
X058889Y028786D01*
X05892Y028901D01*
Y028911D01*
X06035Y03034D01*
X060406Y030413D01*
X060441Y030499D01*
X060453Y03059D01*
Y04125D01*
X060441Y041341D01*
X060406Y041427D01*
X06035Y0415D01*
X05926Y04259D01*
X059187Y042646D01*
X059101Y042681D01*
X05901Y042693D01*
X057615D01*
X057524Y042681D01*
X057438Y042646D01*
X057365Y04259D01*
X056538Y041763D01*
X056508Y041769D01*
X056392D01*
X056277Y041746D01*
X056169Y041701D01*
X056072Y041636D01*
X055989Y041553D01*
X055975Y041533D01*
X055925D01*
X055911Y041553D01*
X055828Y041636D01*
X055731Y041701D01*
X055623Y041746D01*
X055508Y041769D01*
X055392D01*
X055277Y041746D01*
X055169Y041701D01*
X055072Y041636D01*
X054989Y041553D01*
X054975Y041533D01*
X054925D01*
X054911Y041553D01*
X054828Y041636D01*
X054731Y041701D01*
X054623Y041746D01*
X054553Y04176D01*
Y04192D01*
X054541Y042011D01*
X054506Y042097D01*
X05445Y04217D01*
X054377Y042226D01*
X054291Y042261D01*
X0542Y042273D01*
X04919D01*
X049099Y042261D01*
X049014Y042226D01*
X048941Y04217D01*
X047665Y040894D01*
X047618Y040918D01*
X047589Y041024D01*
X04753Y041126D01*
X047446Y04121D01*
X047344Y041269D01*
X047229Y0413D01*
X047219D01*
X0458Y04272D01*
X045727Y042776D01*
X045641Y042811D01*
X04555Y042823D01*
X033D01*
X033Y042823D01*
D02*
G37*
G36*
X034522Y028541D02*
X034374D01*
X034229Y028512D01*
X034093Y028455D01*
X03397Y028373D01*
X033865Y028269D01*
X033783Y028146D01*
X033727Y028009D01*
X033698Y027864D01*
Y027717D01*
X033727Y027572D01*
X033783Y027435D01*
X033865Y027312D01*
X03397Y027208D01*
X034093Y027126D01*
X034229Y027069D01*
X034374Y027041D01*
X034522D01*
X034667Y027069D01*
X034803Y027126D01*
X034926Y027208D01*
X03503Y027312D01*
X035113Y027435D01*
X035169Y027572D01*
X035198Y027717D01*
Y027864D01*
X035169Y028009D01*
X035113Y028146D01*
X03503Y028269D01*
X034926Y028373D01*
X034803Y028455D01*
X034667Y028512D01*
X034522Y028541D01*
D02*
G37*
G36*
X057215Y023795D02*
X057085D01*
X056959Y023762D01*
X056846Y023696D01*
X056754Y023604D01*
X056688Y023491D01*
X056655Y023365D01*
Y023235D01*
X056688Y023109D01*
X056754Y022996D01*
X056846Y022904D01*
X056947Y022845D01*
X056934Y022795D01*
X056655D01*
Y021805D01*
X057645D01*
Y022795D01*
X057366D01*
X057353Y022845D01*
X057454Y022904D01*
X057546Y022996D01*
X057612Y023109D01*
X057645Y023235D01*
Y023365D01*
X057612Y023491D01*
X057546Y023604D01*
X057454Y023696D01*
X057341Y023762D01*
X057215Y023795D01*
D02*
G37*
G36*
X028816Y0205D02*
X028684D01*
X028557Y020466D01*
X028443Y0204D01*
X02835Y020307D01*
X028284Y020193D01*
X02825Y020066D01*
Y019934D01*
X028284Y019807D01*
X02835Y019693D01*
X028443Y0196D01*
X028557Y019534D01*
X028684Y0195D01*
X028816D01*
X028943Y019534D01*
X029057Y0196D01*
X02915Y019693D01*
X029216Y019807D01*
X02925Y019934D01*
Y020066D01*
X029216Y020193D01*
X02915Y020307D01*
X029057Y0204D01*
X028943Y020466D01*
X028816Y0205D01*
D02*
G37*
G36*
X060366Y02045D02*
X060234D01*
X060107Y020416D01*
X059993Y02035D01*
X0599Y020257D01*
X059834Y020143D01*
X0598Y020016D01*
Y019884D01*
X059834Y019757D01*
X0599Y019643D01*
X059993Y01955D01*
X060107Y019484D01*
X060234Y01945D01*
X060366D01*
X060493Y019484D01*
X060607Y01955D01*
X0607Y019643D01*
X060766Y019757D01*
X0608Y019884D01*
Y020016D01*
X060766Y020143D01*
X0607Y020257D01*
X060607Y02035D01*
X060493Y020416D01*
X060366Y02045D01*
D02*
G37*
%LPD*%
G36*
X059747Y041104D02*
Y039592D01*
X059697Y039564D01*
X059612Y039613D01*
X059472Y03965D01*
X059328D01*
X059188Y039613D01*
X059062Y03954D01*
X05896Y039438D01*
X058887Y039312D01*
X05885Y039172D01*
Y039049D01*
X05845Y03865D01*
X058394Y038577D01*
X058359Y038491D01*
X058347Y0384D01*
Y033626D01*
X05747Y03275D01*
X057423Y032688D01*
X057373Y032701D01*
Y03423D01*
X057361Y034321D01*
X057326Y034407D01*
X05727Y03448D01*
X057023Y034726D01*
Y03537D01*
X057029Y035372D01*
X057073Y035378D01*
X05714Y035262D01*
X057242Y03516D01*
X057368Y035087D01*
X057508Y03505D01*
X057652D01*
X057792Y035087D01*
X057918Y03516D01*
X05802Y035262D01*
X058093Y035388D01*
X05813Y035528D01*
Y035672D01*
X058093Y035812D01*
X05802Y035938D01*
X057918Y03604D01*
X057792Y036113D01*
X057652Y03615D01*
X057508D01*
X057368Y036113D01*
X057242Y03604D01*
X05714Y035938D01*
X057073Y035822D01*
X057029Y035828D01*
X057023Y03583D01*
Y03819D01*
X057011Y038281D01*
X056976Y038367D01*
X05692Y03844D01*
X05631Y039049D01*
Y039172D01*
X056273Y039312D01*
X056224Y039397D01*
X056252Y039447D01*
X056734D01*
X05703Y039151D01*
Y039028D01*
X057067Y038888D01*
X05714Y038762D01*
X057242Y03866D01*
X057368Y038587D01*
X057508Y03855D01*
X057652D01*
X057792Y038587D01*
X057918Y03866D01*
X05802Y038762D01*
X058093Y038888D01*
X05813Y039028D01*
Y039172D01*
X058093Y039312D01*
X05802Y039438D01*
X057918Y03954D01*
X057792Y039613D01*
X057652Y03965D01*
X057529D01*
X05713Y04005D01*
X057057Y040106D01*
X056971Y040141D01*
X05688Y040153D01*
X05536D01*
X055269Y040141D01*
X055183Y040106D01*
X05511Y04005D01*
X05481Y03975D01*
X054754Y039677D01*
X054719Y039591D01*
X054707Y0395D01*
Y034895D01*
X054719Y034803D01*
X054754Y034718D01*
X05481Y034645D01*
X05586Y033595D01*
Y033593D01*
X05497Y032703D01*
X054914Y03263D01*
X054879Y032545D01*
X054867Y032454D01*
Y023916D01*
X054746Y023795D01*
X054685D01*
X054559Y023762D01*
X054446Y023696D01*
X054354Y023604D01*
X054288Y023491D01*
X054255Y023365D01*
Y02336D01*
X054209Y023341D01*
X053853Y023696D01*
Y02512D01*
X053841Y025211D01*
X053806Y025297D01*
X05375Y02537D01*
X052759Y02636D01*
X052778Y026406D01*
X053527D01*
Y026497D01*
X053577Y026524D01*
X053652Y026474D01*
X05376Y026429D01*
X053875Y026406D01*
X053992D01*
X054107Y026429D01*
X054215Y026474D01*
X054312Y026539D01*
X054394Y026622D01*
X054459Y026719D01*
X054504Y026827D01*
X054527Y026942D01*
Y027058D01*
X054504Y027173D01*
X054459Y027281D01*
X054394Y027378D01*
X054353Y02742D01*
X054363Y0275D01*
X054363Y0275D01*
Y03452D01*
X054351Y034611D01*
X054316Y034697D01*
X05426Y03477D01*
X054027Y035002D01*
X054042Y035058D01*
X054152Y035087D01*
X054278Y03516D01*
X05438Y035262D01*
X054453Y035388D01*
X05449Y035528D01*
Y035672D01*
X054453Y035812D01*
X05438Y035938D01*
X054278Y03604D01*
X054152Y036113D01*
X054012Y03615D01*
X053868D01*
X053728Y036113D01*
X053602Y03604D01*
X0535Y035938D01*
X053433Y035822D01*
X053389Y035828D01*
X053383Y03583D01*
Y03819D01*
X053371Y038281D01*
X053336Y038367D01*
X05328Y03844D01*
X05267Y039049D01*
Y039172D01*
X052633Y039312D01*
X05256Y039438D01*
X052458Y03954D01*
X052396Y039576D01*
X052393Y039626D01*
X052425Y03965D01*
X053356Y040581D01*
X054044D01*
Y040672D01*
X054094Y040699D01*
X054169Y040649D01*
X054277Y040604D01*
X054392Y040581D01*
X054508D01*
X054623Y040604D01*
X054731Y040649D01*
X054828Y040714D01*
X054911Y040797D01*
X054925Y040817D01*
X054975D01*
X054989Y040797D01*
X055072Y040714D01*
X055169Y040649D01*
X055277Y040604D01*
X055392Y040581D01*
X055508D01*
X055623Y040604D01*
X055731Y040649D01*
X055828Y040714D01*
X055911Y040797D01*
X055925Y040817D01*
X055975D01*
X055989Y040797D01*
X056072Y040714D01*
X056169Y040649D01*
X056277Y040604D01*
X056392Y040581D01*
X056508D01*
X056623Y040604D01*
X056731Y040649D01*
X056828Y040714D01*
X056911Y040797D01*
X056976Y040894D01*
X057021Y041002D01*
X057044Y041117D01*
Y041233D01*
X057038Y041263D01*
X057761Y041987D01*
X058864D01*
X059747Y041104D01*
D02*
G37*
G36*
X052611Y041517D02*
X052604Y041516D01*
X052518Y041481D01*
X052445Y041425D01*
X051379Y040359D01*
X051341Y04039D01*
X051376Y040444D01*
X051421Y040552D01*
X051444Y040667D01*
Y040783D01*
X051421Y040898D01*
X051376Y041006D01*
X051311Y041103D01*
X051228Y041186D01*
X051131Y041251D01*
X051023Y041296D01*
X050908Y041319D01*
X050792D01*
X050677Y041296D01*
X050569Y041251D01*
X050472Y041186D01*
X050389Y041103D01*
X050324Y041006D01*
X050279Y040898D01*
X050256Y040783D01*
Y040667D01*
X050279Y040552D01*
X050324Y040444D01*
X050389Y040347D01*
X050432Y040303D01*
X050412Y040253D01*
X04904D01*
X048949Y040241D01*
X048863Y040206D01*
X04879Y04015D01*
X04832Y03968D01*
X048264Y039607D01*
X04824Y039549D01*
X048189Y039556D01*
X048184Y039616D01*
X04815Y039728D01*
X048094Y039831D01*
X04802Y039922D01*
X04793Y039996D01*
X047869Y040029D01*
X04786Y04009D01*
X049336Y041567D01*
X052608D01*
X052611Y041517D01*
D02*
G37*
G36*
X036548Y040847D02*
X03595Y04025D01*
X035911Y040198D01*
X035901Y040195D01*
X035854Y040198D01*
X035851Y040199D01*
X035798Y040279D01*
X035715Y040361D01*
X035618Y040426D01*
X03551Y040471D01*
X035395Y040494D01*
X035279D01*
X035164Y040471D01*
X035056Y040426D01*
X034959Y040361D01*
X034876Y040279D01*
X034811Y040181D01*
X034766Y040073D01*
X034743Y039959D01*
Y039842D01*
X034766Y039727D01*
X034811Y039619D01*
X034876Y039522D01*
X034959Y039439D01*
X035056Y039374D01*
X035164Y039329D01*
X035279Y039307D01*
X035395D01*
X03551Y039329D01*
X035618Y039374D01*
X035715Y039439D01*
X035797Y039521D01*
X035809Y03952D01*
X035847Y039509D01*
Y038706D01*
X034529Y037388D01*
X034483Y037408D01*
Y0377D01*
X034471Y037791D01*
X034436Y037877D01*
X03438Y03795D01*
X03438Y03795D01*
X033563Y038766D01*
Y039393D01*
X033613Y03942D01*
X033682Y039374D01*
X03379Y039329D01*
X033905Y039307D01*
X034021D01*
X034136Y039329D01*
X034244Y039374D01*
X034341Y039439D01*
X034424Y039522D01*
X034489Y039619D01*
X034534Y039727D01*
X034557Y039842D01*
Y039959D01*
X034534Y040073D01*
X034489Y040181D01*
X034424Y040279D01*
X034341Y040361D01*
X034244Y040426D01*
X034136Y040471D01*
X034021Y040494D01*
X033905D01*
X03379Y040471D01*
X033724Y040444D01*
X033695Y040486D01*
X034106Y040897D01*
X036527D01*
X036548Y040847D01*
D02*
G37*
G36*
X031277Y039957D02*
Y039531D01*
X030959Y039213D01*
X030855Y039234D01*
X030718D01*
X030585Y039207D01*
X030459Y039155D01*
X030345Y03908D01*
X030339Y039073D01*
X030293Y039092D01*
Y039518D01*
X030614Y039839D01*
X030718Y039818D01*
X030855D01*
X030989Y039845D01*
X031114Y039897D01*
X031228Y039973D01*
X031231Y039976D01*
X031277Y039957D01*
D02*
G37*
G36*
X04672Y040801D02*
Y040791D01*
X046751Y040676D01*
X046783Y040621D01*
X046767Y040574D01*
X046723Y040556D01*
X04665Y0405D01*
X0464Y04025D01*
X046344Y040177D01*
X046309Y040091D01*
X046297Y04D01*
Y039068D01*
X046251Y039048D01*
X044434Y040865D01*
X044361Y040921D01*
X044276Y040957D01*
X044184Y040969D01*
X037505D01*
X037476Y041019D01*
X037509Y041076D01*
X03754Y041191D01*
Y041309D01*
X037509Y041424D01*
X03745Y041526D01*
X037366Y04161D01*
X037264Y041669D01*
X037149Y0417D01*
X037031D01*
X036916Y041669D01*
X036814Y04161D01*
X036807Y041603D01*
X03396D01*
X033869Y041591D01*
X033783Y041556D01*
X03371Y0415D01*
X03296Y04075D01*
X032904Y040677D01*
X032869Y040591D01*
X032857Y0405D01*
Y03862D01*
X032869Y038529D01*
X032904Y038443D01*
X03296Y03837D01*
X033777Y037554D01*
Y036981D01*
X033727Y036975D01*
X033648Y037078D01*
X033537Y037163D01*
X033408Y037216D01*
X03327Y037235D01*
X03293D01*
X032792Y037216D01*
X032663Y037163D01*
X032552Y037078D01*
X032533Y037053D01*
X0325D01*
X032409Y037041D01*
X032323Y037006D01*
X03225Y03695D01*
X032049Y036748D01*
X032003Y036768D01*
Y037679D01*
X031991Y03777D01*
X031956Y037855D01*
X0319Y037928D01*
X031458Y03837D01*
X031479Y038474D01*
Y03861D01*
X031458Y038714D01*
X03188Y039136D01*
X031936Y039209D01*
X031971Y039294D01*
X031983Y039385D01*
Y040954D01*
X033146Y042117D01*
X045404D01*
X04672Y040801D01*
D02*
G37*
G36*
X046247Y038054D02*
Y036764D01*
X0462Y036748D01*
X046193Y036757D01*
X046193Y036757D01*
X04462Y03833D01*
X044547Y038386D01*
X044461Y038421D01*
X04437Y038433D01*
X03982D01*
X039729Y038421D01*
X039643Y038386D01*
X03957Y03833D01*
X03815Y03691D01*
X038124Y036875D01*
X03806Y036874D01*
X03802Y036922D01*
X037964Y036968D01*
Y037032D01*
X03802Y037078D01*
X038094Y037169D01*
X03815Y037272D01*
X038184Y037384D01*
X038195Y0375D01*
X038184Y037616D01*
X03815Y037728D01*
X038094Y037831D01*
X03802Y037922D01*
X037964Y037968D01*
Y038032D01*
X03802Y038078D01*
X038094Y038169D01*
X03815Y038272D01*
X038184Y038384D01*
X038195Y0385D01*
X038184Y038616D01*
X03815Y038728D01*
X038094Y038831D01*
X03802Y038922D01*
X037964Y038968D01*
Y039032D01*
X03802Y039078D01*
X038094Y039169D01*
X03815Y039272D01*
X038184Y039384D01*
X038195Y0395D01*
X038184Y039616D01*
X03815Y039728D01*
X038094Y039831D01*
X03802Y039922D01*
X03793Y039996D01*
X037827Y040051D01*
X037715Y040085D01*
X037598Y040097D01*
X037402D01*
X037285Y040085D01*
X037173Y040051D01*
X03707Y039996D01*
X03698Y039922D01*
X036906Y039831D01*
X03685Y039728D01*
X036816Y039616D01*
X036805Y0395D01*
X036816Y039384D01*
X03685Y039272D01*
X036906Y039169D01*
X03698Y039078D01*
X037036Y039032D01*
Y038968D01*
X03698Y038922D01*
X036906Y038831D01*
X03685Y038728D01*
X036816Y038616D01*
X036805Y0385D01*
X036816Y038384D01*
X03685Y038272D01*
X036906Y038169D01*
X03698Y038078D01*
X037036Y038032D01*
Y037968D01*
X03698Y037922D01*
X036906Y037831D01*
X03685Y037728D01*
X036816Y037616D01*
X036805Y0375D01*
X036816Y037384D01*
X03685Y037272D01*
X036906Y037169D01*
X03698Y037078D01*
X037036Y037032D01*
Y036968D01*
X03698Y036922D01*
X036923Y036853D01*
X03681D01*
X036719Y036841D01*
X036633Y036806D01*
X03656Y03675D01*
X03631Y0365D01*
X036276Y036455D01*
X036236Y036483D01*
X036289Y036612D01*
X036307Y03675D01*
X036289Y036888D01*
X036236Y037017D01*
X036151Y037128D01*
X03604Y037213D01*
X035911Y037266D01*
X035773Y037285D01*
X035495D01*
X035474Y037335D01*
X03645Y03831D01*
X036506Y038383D01*
X036541Y038469D01*
X036553Y03856D01*
Y039854D01*
X036962Y040263D01*
X044038D01*
X046247Y038054D01*
D02*
G37*
G36*
X042847Y037681D02*
X04065Y035485D01*
X040594Y035411D01*
X040559Y035326D01*
X040549Y035248D01*
X040522Y03523D01*
X040439Y035147D01*
X040374Y03505D01*
X040329Y034942D01*
X040306Y034827D01*
Y034711D01*
X040329Y034596D01*
X040374Y034488D01*
X040439Y034391D01*
X040522Y034308D01*
X040619Y034243D01*
X040727Y034198D01*
X040842Y034175D01*
X040958D01*
X041022Y034188D01*
X041077Y034148D01*
X041078Y034137D01*
X0409Y03396D01*
X040844Y033887D01*
X040809Y033801D01*
X040797Y03371D01*
Y031253D01*
X040556D01*
Y030565D01*
X04015Y030159D01*
X040094Y030086D01*
X040059Y03D01*
X040047Y029909D01*
Y027856D01*
X038238Y026048D01*
X038192Y026067D01*
Y026094D01*
X038144D01*
X038115Y026144D01*
X03812Y026151D01*
X038181Y026159D01*
X038267Y026194D01*
X03834Y02625D01*
X039Y02691D01*
X039056Y026983D01*
X039091Y027069D01*
X039103Y02716D01*
Y031134D01*
X04008Y03211D01*
X040136Y032183D01*
X040171Y032269D01*
X040183Y03236D01*
Y035534D01*
X040812Y036162D01*
X040842Y036156D01*
X040958D01*
X041073Y036179D01*
X041181Y036224D01*
X041278Y036289D01*
X041361Y036372D01*
X041426Y036469D01*
X041471Y036577D01*
X041494Y036692D01*
Y036808D01*
X041471Y036923D01*
X041426Y037031D01*
X041361Y037128D01*
X041278Y037211D01*
X041181Y037276D01*
X041073Y037321D01*
X040958Y037344D01*
X040842D01*
X040727Y037321D01*
X040619Y037276D01*
X040522Y037211D01*
X040439Y037128D01*
X040374Y037031D01*
X040329Y036923D01*
X040306Y036808D01*
Y036692D01*
X040312Y036662D01*
X03958Y03593D01*
X039524Y035857D01*
X039489Y035771D01*
X039477Y03568D01*
Y032506D01*
X0385Y03153D01*
X038444Y031457D01*
X038409Y031371D01*
X038397Y03128D01*
Y027306D01*
X038016Y026925D01*
X037964Y026968D01*
Y027032D01*
X03802Y027078D01*
X038094Y027169D01*
X03815Y027272D01*
X038184Y027384D01*
X038195Y0275D01*
X038184Y027616D01*
X03815Y027728D01*
X038094Y027831D01*
X03802Y027922D01*
X037964Y027968D01*
Y028032D01*
X03802Y028078D01*
X038094Y028169D01*
X03815Y028272D01*
X038184Y028384D01*
X038195Y0285D01*
X038184Y028616D01*
X03815Y028728D01*
X038094Y028831D01*
X03802Y028922D01*
X037964Y028968D01*
Y029032D01*
X03802Y029078D01*
X038094Y029169D01*
X03815Y029272D01*
X038184Y029384D01*
X038195Y0295D01*
X038184Y029616D01*
X03815Y029728D01*
X038094Y029831D01*
X03802Y029922D01*
X037964Y029968D01*
Y030032D01*
X03802Y030078D01*
X038094Y030169D01*
X03815Y030272D01*
X038184Y030384D01*
X038195Y0305D01*
X038184Y030616D01*
X03815Y030728D01*
X038094Y030831D01*
X03802Y030922D01*
X037964Y030968D01*
Y031032D01*
X03802Y031078D01*
X038094Y031169D01*
X03815Y031272D01*
X038184Y031384D01*
X038195Y0315D01*
X038184Y031616D01*
X03815Y031728D01*
X038094Y031831D01*
X03802Y031922D01*
X037964Y031968D01*
Y032032D01*
X03802Y032078D01*
X038094Y032169D01*
X03815Y032272D01*
X038184Y032384D01*
X038195Y0325D01*
X038184Y032616D01*
X03815Y032728D01*
X038094Y032831D01*
X03802Y032922D01*
X037964Y032968D01*
Y033032D01*
X03802Y033078D01*
X038077Y033147D01*
X03815D01*
X038241Y033159D01*
X038327Y033194D01*
X0384Y03325D01*
X03865Y0335D01*
X038706Y033573D01*
X038741Y033659D01*
X038753Y03375D01*
Y036514D01*
X039966Y037727D01*
X042827D01*
X042847Y037681D01*
D02*
G37*
G36*
X059747Y038608D02*
Y036092D01*
X059697Y036064D01*
X059612Y036113D01*
X059472Y03615D01*
X059328D01*
X059188Y036113D01*
X059103Y036064D01*
X059053Y036092D01*
Y038254D01*
X059349Y03855D01*
X059472D01*
X059612Y038587D01*
X059697Y038636D01*
X059747Y038608D01*
D02*
G37*
G36*
X049919Y039497D02*
X04986Y039438D01*
X049787Y039312D01*
X04975Y039172D01*
Y039028D01*
X049787Y038888D01*
X04986Y038762D01*
X049947Y038675D01*
Y038424D01*
X049959Y038333D01*
X049994Y038247D01*
X05005Y038174D01*
X050647Y037578D01*
Y036092D01*
X050597Y036064D01*
X050512Y036113D01*
X050372Y03615D01*
X050228D01*
X050088Y036113D01*
X049962Y03604D01*
X04986Y035938D01*
X049787Y035812D01*
X04975Y035672D01*
Y035549D01*
X048969Y034768D01*
X048923Y034788D01*
Y039284D01*
X049186Y039547D01*
X049898D01*
X049919Y039497D01*
D02*
G37*
G36*
X052048Y03855D02*
X052171D01*
X052677Y038044D01*
Y03583D01*
X052671Y035828D01*
X052627Y035822D01*
X05256Y035938D01*
X052473Y036025D01*
Y03787D01*
X052461Y037961D01*
X052426Y038047D01*
X05237Y03812D01*
X05237Y03812D01*
X05197Y038519D01*
X051996Y038564D01*
X052048Y03855D01*
D02*
G37*
G36*
X055548Y038587D02*
X055688Y03855D01*
X055811D01*
X056317Y038044D01*
Y03583D01*
X056311Y035828D01*
X056267Y035822D01*
X0562Y035938D01*
X056098Y03604D01*
X055972Y036113D01*
X055832Y03615D01*
X055688D01*
X055548Y036113D01*
X055463Y036064D01*
X055413Y036092D01*
Y038608D01*
X055463Y038636D01*
X055548Y038587D01*
D02*
G37*
G36*
X044097Y036211D02*
Y035268D01*
X044047Y035242D01*
X043981Y035286D01*
X043873Y03533D01*
X043758Y035353D01*
X043642D01*
X043527Y03533D01*
X043419Y035286D01*
X043322Y035221D01*
X043239Y035138D01*
X043174Y035041D01*
X043129Y034933D01*
X043106Y034818D01*
Y034701D01*
X043129Y034586D01*
X043174Y034478D01*
X043239Y034381D01*
X043322Y034298D01*
X043347Y034281D01*
Y025987D01*
X043359Y025895D01*
X043394Y02581D01*
X04345Y025737D01*
X046937Y022251D01*
Y022241D01*
X046967Y022126D01*
X047027Y022024D01*
X04711Y02194D01*
X047213Y021881D01*
X047328Y02185D01*
X047446D01*
X04756Y021881D01*
X047657Y021936D01*
X047707Y021921D01*
Y021703D01*
X047719Y021612D01*
X047754Y021527D01*
X04781Y021454D01*
X04821Y021054D01*
X048191Y021008D01*
X045592D01*
X044092Y022507D01*
X044118Y022552D01*
X044172Y022537D01*
X04429D01*
X044405Y022568D01*
X044507Y022627D01*
X044591Y022711D01*
X04465Y022814D01*
X044681Y022928D01*
Y023047D01*
X04465Y023161D01*
X044591Y023264D01*
X044584Y023271D01*
Y02346D01*
X044572Y023551D01*
X044537Y023637D01*
X044481Y02371D01*
X041738Y026452D01*
X041744Y026482D01*
Y026599D01*
X041721Y026714D01*
X041676Y026822D01*
X041611Y026919D01*
X041528Y027002D01*
X041431Y027067D01*
X041323Y027112D01*
X041208Y027135D01*
X041092D01*
X040977Y027112D01*
X040869Y027067D01*
X040803Y027023D01*
X040753Y02705D01*
Y027564D01*
X0414Y02821D01*
X041456Y028283D01*
X041491Y028369D01*
X041503Y02846D01*
Y030065D01*
X041744D01*
Y031253D01*
X041503D01*
Y033564D01*
X04395Y03601D01*
X044006Y036083D01*
X044041Y036169D01*
X044047Y036214D01*
X044097Y036211D01*
D02*
G37*
G36*
X056311Y035372D02*
X056317Y03537D01*
Y03458D01*
X056329Y034489D01*
X056364Y034403D01*
X05642Y03433D01*
X05666Y03409D01*
X056657Y034052D01*
X056611Y034027D01*
X056553Y03406D01*
X056426Y034094D01*
X05636D01*
X055413Y035041D01*
Y035108D01*
X055463Y035136D01*
X055548Y035087D01*
X055688Y03505D01*
X055832D01*
X055972Y035087D01*
X056098Y03516D01*
X0562Y035262D01*
X056267Y035378D01*
X056311Y035372D01*
D02*
G37*
G36*
X030345Y038004D02*
X030459Y037929D01*
X030585Y037876D01*
X030718Y03785D01*
X030855D01*
X030959Y03787D01*
X031297Y037532D01*
Y034968D01*
X031251Y034948D01*
X030293Y035906D01*
Y037991D01*
X030339Y038011D01*
X030345Y038004D01*
D02*
G37*
G36*
X043124Y036889D02*
X043106Y036799D01*
Y036682D01*
X043129Y036567D01*
X043174Y036459D01*
X043239Y036362D01*
X043271Y03633D01*
X041532Y034591D01*
X041521Y034592D01*
X041481Y034647D01*
X041494Y034711D01*
Y034827D01*
X041471Y034942D01*
X041426Y03505D01*
X041361Y035147D01*
X041336Y035172D01*
X043078Y036914D01*
X043124Y036889D01*
D02*
G37*
G36*
X036207Y034367D02*
Y033136D01*
X035859Y032788D01*
X035793Y032839D01*
X035665Y032891D01*
X035618Y032898D01*
X035601Y032945D01*
X03561Y032954D01*
X035669Y033056D01*
X0357Y033171D01*
Y033187D01*
X035736Y033233D01*
X035771Y033319D01*
X035783Y03341D01*
Y034217D01*
X035911Y034234D01*
X03604Y034287D01*
X036151Y034372D01*
X03616Y034384D01*
X036207Y034367D01*
D02*
G37*
G36*
X059188Y035087D02*
X059328Y03505D01*
X059472D01*
X059612Y035087D01*
X059697Y035136D01*
X059747Y035108D01*
Y030736D01*
X058421Y02941D01*
X058411D01*
X058296Y029379D01*
X058194Y02932D01*
X058123Y029249D01*
X058073Y029268D01*
Y032354D01*
X05895Y03323D01*
X059006Y033303D01*
X059041Y033389D01*
X059053Y03348D01*
Y035108D01*
X059103Y035136D01*
X059188Y035087D01*
D02*
G37*
G36*
X050647Y035108D02*
Y034496D01*
X04968Y03353D01*
X049624Y033457D01*
X049589Y033371D01*
X049577Y03328D01*
Y02872D01*
X049589Y028629D01*
X049624Y028543D01*
X04968Y02847D01*
X050516Y027634D01*
X050486Y027594D01*
X049503D01*
Y034304D01*
X050249Y03505D01*
X050372D01*
X050512Y035087D01*
X050597Y035136D01*
X050647Y035108D01*
D02*
G37*
G36*
X051067Y03857D02*
X051079Y038479D01*
X051114Y038393D01*
X05117Y03832D01*
X051767Y037724D01*
Y036025D01*
X05168Y035938D01*
X051607Y035812D01*
X05157Y035672D01*
Y035528D01*
X051607Y035388D01*
X05168Y035262D01*
X051782Y03516D01*
X051908Y035087D01*
X052048Y03505D01*
X052192D01*
X052332Y035087D01*
X052458Y03516D01*
X05256Y035262D01*
X052633Y035388D01*
X052638Y03541D01*
X052686Y035409D01*
X05269Y035407D01*
X052724Y035323D01*
X05278Y03525D01*
X053657Y034374D01*
Y034094D01*
X05284D01*
Y033094D01*
X053102D01*
X053116Y033044D01*
X053044Y033003D01*
X052951Y03291D01*
X052885Y032796D01*
X052851Y032669D01*
Y032537D01*
X052885Y03241D01*
X052951Y032296D01*
X053044Y032203D01*
X053158Y032137D01*
X053286Y032103D01*
X053417D01*
X053544Y032137D01*
X053614Y032177D01*
X053657Y032152D01*
Y027638D01*
X053628Y0276D01*
X053596Y027523D01*
X05358Y02751D01*
X053577Y027509D01*
X053527Y027545D01*
Y027594D01*
X052523D01*
Y033687D01*
X05253Y033694D01*
X052589Y033796D01*
X05262Y033911D01*
Y034029D01*
X052589Y034144D01*
X05253Y034246D01*
X052446Y03433D01*
X052344Y034389D01*
X052229Y03442D01*
X052111D01*
X051996Y034389D01*
X051894Y03433D01*
X05181Y034246D01*
X051751Y034144D01*
X05172Y034029D01*
Y033911D01*
X051751Y033796D01*
X05181Y033694D01*
X051817Y033687D01*
Y02645D01*
X051829Y026359D01*
X051864Y026273D01*
X05192Y0262D01*
X053147Y024974D01*
Y024068D01*
X053101Y024048D01*
X050782Y026367D01*
X050807Y026413D01*
X050842Y026406D01*
X050958D01*
X051073Y026429D01*
X051181Y026474D01*
X051278Y026539D01*
X051361Y026622D01*
X051426Y026719D01*
X051471Y026827D01*
X051494Y026942D01*
Y027058D01*
X051471Y027173D01*
X051426Y027281D01*
X051361Y027378D01*
X051278Y027461D01*
X051253Y027478D01*
Y02775D01*
X051241Y027841D01*
X051206Y027927D01*
X05115Y028D01*
X050283Y028866D01*
Y031315D01*
X050333Y03133D01*
X050389Y031247D01*
X050472Y031164D01*
X050569Y031099D01*
X050677Y031054D01*
X050792Y031031D01*
X050908D01*
X051023Y031054D01*
X051131Y031099D01*
X051228Y031164D01*
X051311Y031247D01*
X051376Y031344D01*
X051421Y031452D01*
X051444Y031567D01*
Y031683D01*
X051421Y031798D01*
X051376Y031906D01*
X051311Y032003D01*
X051228Y032086D01*
X051131Y032151D01*
X051023Y032196D01*
X050908Y032219D01*
X050792D01*
X050677Y032196D01*
X050569Y032151D01*
X050472Y032086D01*
X050389Y032003D01*
X050333Y03192D01*
X050283Y031935D01*
Y033134D01*
X05125Y0341D01*
X05125Y0341D01*
X051306Y034173D01*
X051341Y034259D01*
X051353Y03435D01*
X051353Y03435D01*
Y037724D01*
X051341Y037815D01*
X051306Y0379D01*
X05125Y037974D01*
X05125Y037974D01*
X050653Y03857D01*
Y038675D01*
X05074Y038762D01*
X050813Y038888D01*
X05085Y039028D01*
Y039172D01*
X050813Y039312D01*
X05074Y039438D01*
X050681Y039497D01*
X050702Y039547D01*
X051067D01*
Y03857D01*
D02*
G37*
G36*
X05586Y03253D02*
Y032525D01*
X055894Y032398D01*
X05596Y032284D01*
X056053Y032191D01*
X056167Y032125D01*
X056295Y032091D01*
X056426D01*
X056553Y032125D01*
X056624Y032166D01*
X056667Y032141D01*
Y027514D01*
X05661Y027476D01*
X05656Y027503D01*
Y027594D01*
X055573D01*
Y032308D01*
X055814Y032549D01*
X05586Y03253D01*
D02*
G37*
G36*
X04559Y036361D02*
Y02548D01*
X045544Y02546D01*
X044803Y026201D01*
Y037082D01*
X044849Y037102D01*
X04559Y036361D01*
D02*
G37*
G36*
X048797Y026302D02*
Y023463D01*
X048751Y023444D01*
X04825Y023945D01*
X048177Y024001D01*
X048091Y024037D01*
X048Y024049D01*
X047741D01*
X046607Y025182D01*
X04664Y02522D01*
X046673Y025194D01*
X046759Y025159D01*
X04685Y025147D01*
X046923D01*
X04698Y025078D01*
X04707Y025004D01*
X047173Y024949D01*
X047285Y024915D01*
X047402Y024903D01*
X047598D01*
X047715Y024915D01*
X047827Y024949D01*
X04793Y025004D01*
X04802Y025078D01*
X048094Y025169D01*
X04815Y025272D01*
X048184Y025384D01*
X048195Y0255D01*
X048184Y025616D01*
X04815Y025728D01*
X048094Y025831D01*
X04802Y025922D01*
X047964Y025968D01*
Y026032D01*
X04802Y026078D01*
X048077Y026147D01*
X04843D01*
X048521Y026159D01*
X048607Y026194D01*
X04868Y02625D01*
X048751Y026322D01*
X048797Y026302D01*
D02*
G37*
G36*
X056685Y026474D02*
X056793Y026429D01*
X056908Y026406D01*
X057025D01*
X05714Y026429D01*
X057248Y026474D01*
X057317Y02652D01*
X057367Y026493D01*
Y02556D01*
X057379Y025469D01*
X057414Y025383D01*
X05747Y02531D01*
X05763Y025151D01*
Y025141D01*
X057661Y025026D01*
X05772Y024924D01*
X057791Y024853D01*
X057772Y024803D01*
X057D01*
X056909Y024791D01*
X056823Y024756D01*
X05675Y0247D01*
X05586Y02381D01*
X055804Y023737D01*
X055769Y023651D01*
X055757Y02356D01*
Y023183D01*
X055707Y023173D01*
X055706Y023177D01*
X05565Y02325D01*
X055424Y023475D01*
X05547Y02352D01*
X055526Y023593D01*
X055561Y023679D01*
X055573Y02377D01*
Y026406D01*
X05656D01*
Y026497D01*
X05661Y026524D01*
X056685Y026474D01*
D02*
G37*
G36*
X040869Y026015D02*
X040977Y02597D01*
X041092Y025947D01*
X041208D01*
X041238Y025953D01*
X043878Y023314D01*
Y023271D01*
X043871Y023264D01*
X043812Y023161D01*
X043781Y023047D01*
Y022928D01*
X043795Y022875D01*
X04375Y022849D01*
X040753Y025846D01*
Y026032D01*
X040803Y026059D01*
X040869Y026015D01*
D02*
G37*
G36*
X049844Y026323D02*
X0499Y02625D01*
X050525Y025626D01*
X050505Y02558D01*
X050461D01*
X050346Y025549D01*
X050244Y02549D01*
X05016Y025406D01*
X050101Y025304D01*
X05007Y025189D01*
Y025071D01*
X050101Y024956D01*
X05016Y024854D01*
X050244Y02477D01*
X050346Y024711D01*
X050461Y02468D01*
X050471D01*
X051855Y023296D01*
Y023235D01*
X051888Y023109D01*
X051954Y022996D01*
X052046Y022904D01*
X052147Y022845D01*
X052134Y022795D01*
X051855D01*
Y021805D01*
X05253D01*
X052549Y021759D01*
X052298Y021508D01*
X050963D01*
X050935Y021549D01*
X050941Y021563D01*
X050953Y021655D01*
Y02295D01*
X050941Y023041D01*
X050906Y023127D01*
X05085Y0232D01*
X050777Y023256D01*
X050691Y023291D01*
X0506Y023303D01*
X050446D01*
X050445Y023304D01*
Y023365D01*
X050412Y023491D01*
X050346Y023604D01*
X050254Y023696D01*
X050141Y023762D01*
X050015Y023795D01*
X049885D01*
X049759Y023762D01*
X049646Y023696D01*
X049554Y023604D01*
X049551Y0236D01*
X049503Y023613D01*
Y026406D01*
X04981D01*
X049844Y026323D01*
D02*
G37*
G36*
X054255Y022296D02*
Y021805D01*
X054985D01*
X055005Y021755D01*
X054258Y021008D01*
X052862D01*
X052843Y021054D01*
X05325Y02146D01*
X05325Y02146D01*
X053306Y021533D01*
X053341Y021619D01*
X053353Y02171D01*
X053353Y02171D01*
Y023132D01*
X053399Y023152D01*
X054255Y022296D01*
D02*
G37*
G36*
X040047Y026792D02*
Y0257D01*
X040059Y025609D01*
X040094Y025523D01*
X04015Y02545D01*
X045047Y020554D01*
X045028Y020508D01*
X041562D01*
X037209Y02486D01*
X037228Y024906D01*
X038192D01*
Y025147D01*
X038281Y025159D01*
X038367Y025194D01*
X03844Y02525D01*
X040001Y026812D01*
X040047Y026792D01*
D02*
G37*
%LPC*%
G36*
X059108Y041319D02*
X058992D01*
X058877Y041296D01*
X058769Y041251D01*
X058672Y041186D01*
X058589Y041103D01*
X058524Y041006D01*
X058479Y040898D01*
X058456Y040783D01*
Y040667D01*
X058479Y040552D01*
X058524Y040444D01*
X058589Y040347D01*
X058672Y040264D01*
X058769Y040199D01*
X058877Y040154D01*
X058992Y040131D01*
X059108D01*
X059223Y040154D01*
X059331Y040199D01*
X059428Y040264D01*
X059511Y040347D01*
X059576Y040444D01*
X059621Y040552D01*
X059644Y040667D01*
Y040783D01*
X059621Y040898D01*
X059576Y041006D01*
X059511Y041103D01*
X059428Y041186D01*
X059331Y041251D01*
X059223Y041296D01*
X059108Y041319D01*
D02*
G37*
G36*
X054012Y03965D02*
X053868D01*
X053728Y039613D01*
X053602Y03954D01*
X0535Y039438D01*
X053427Y039312D01*
X05339Y039172D01*
Y039028D01*
X053427Y038888D01*
X0535Y038762D01*
X053602Y03866D01*
X053728Y038587D01*
X053868Y03855D01*
X054012D01*
X054152Y038587D01*
X054278Y03866D01*
X05438Y038762D01*
X054453Y038888D01*
X05449Y039028D01*
Y039172D01*
X054453Y039312D01*
X05438Y039438D01*
X054278Y03954D01*
X054152Y039613D01*
X054012Y03965D01*
D02*
G37*
G36*
X059108Y032219D02*
X058992D01*
X058877Y032196D01*
X058769Y032151D01*
X058672Y032086D01*
X058589Y032003D01*
X058524Y031906D01*
X058479Y031798D01*
X058456Y031683D01*
Y031567D01*
X058479Y031452D01*
X058524Y031344D01*
X058589Y031247D01*
X058672Y031164D01*
X058769Y031099D01*
X058877Y031054D01*
X058992Y031031D01*
X059108D01*
X059223Y031054D01*
X059331Y031099D01*
X059428Y031164D01*
X059511Y031247D01*
X059576Y031344D01*
X059621Y031452D01*
X059644Y031567D01*
Y031683D01*
X059621Y031798D01*
X059576Y031906D01*
X059511Y032003D01*
X059428Y032086D01*
X059331Y032151D01*
X059223Y032196D01*
X059108Y032219D01*
D02*
G37*
%LPD*%
D43*
X0404Y02771D02*
Y029909D01*
Y0257D02*
Y02771D01*
X04115Y02846D01*
X03819Y0255D02*
X0404Y02771D01*
X056967Y02704D02*
X05702D01*
X0469Y0255D02*
X0475D01*
X04685D02*
X0469D01*
X05142Y0399D02*
X052175D01*
X04904D02*
X05142D01*
X03543Y03341D02*
Y03475D01*
X05475Y0233D02*
X0551D01*
X0554Y023D01*
Y02165D02*
Y023D01*
X054405Y020655D02*
X0554Y02165D01*
X045445Y020655D02*
X054405D01*
X0404Y0257D02*
X045445Y020655D01*
X0404Y029909D02*
X04115Y030659D01*
X0375Y0255D02*
X03819D01*
X04115Y02846D02*
Y030659D01*
X0409Y034769D02*
Y035235D01*
X043245Y03758D01*
X04408D01*
X04445Y03721D01*
Y026055D02*
Y03721D01*
Y026055D02*
X047309Y023196D01*
X04775D01*
X04806Y022886D01*
Y021703D02*
Y022886D01*
Y021703D02*
X048609Y021155D01*
X052445D01*
X053Y02171D01*
Y02365D01*
X05015Y0265D02*
X053Y02365D01*
X05015Y0265D02*
Y02675D01*
X0499Y027D02*
X05015Y02675D01*
X0303Y0322D02*
X031D01*
X03165Y033D01*
Y037679D01*
X030787Y038542D02*
X03165Y037679D01*
X04555Y04247D02*
X04717Y04085D01*
X033Y04247D02*
X04555D01*
X03163Y0411D02*
X033Y04247D01*
X03163Y039385D02*
Y0411D01*
X030787Y038542D02*
X03163Y039385D01*
X0437Y025987D02*
X047387Y0223D01*
X0437Y025987D02*
Y034759D01*
X02994Y039664D02*
X030787Y04051D01*
X02994Y03576D02*
Y039664D01*
Y03576D02*
X03115Y03455D01*
Y03321D02*
Y03455D01*
X0303Y0332D02*
X03115Y03321D01*
X0509Y027D02*
Y02775D01*
X04993Y02872D02*
X0509Y02775D01*
X04993Y02872D02*
Y03328D01*
X051Y03435D01*
Y037724D01*
X0503Y038424D02*
X051Y037724D01*
X0503Y038424D02*
Y0391D01*
X044231Y022987D02*
Y02346D01*
X04115Y026541D02*
X044231Y02346D01*
X0466Y02575D02*
X04685Y0255D01*
X0466Y02575D02*
Y0382D01*
X044184Y040616D02*
X0466Y0382D01*
X036816Y040616D02*
X044184D01*
X0362Y04D02*
X036816Y040616D01*
X0362Y03856D02*
Y04D01*
X034641Y037001D02*
X0362Y03856D01*
X034641Y032555D02*
Y037001D01*
Y032555D02*
X03475Y032446D01*
Y03064D02*
Y032446D01*
Y03064D02*
X035Y03039D01*
X035478D01*
X03413Y03158D02*
Y0377D01*
X03321Y03862D02*
X03413Y0377D01*
X03321Y03862D02*
Y0405D01*
X03396Y04125D01*
X03709D01*
X0375Y0335D02*
X03815D01*
X0384Y03375D01*
Y03666D01*
X03982Y03808D01*
X04437D01*
X045943Y036507D01*
Y025347D02*
Y036507D01*
Y025347D02*
X047594Y023696D01*
X048D01*
X04856Y023136D01*
Y022399D02*
Y023136D01*
Y022399D02*
X049305Y021655D01*
X0506D01*
Y02295D01*
X0503D02*
X0506D01*
X04995Y0233D02*
X0503Y02295D01*
X05217Y02645D02*
Y03397D01*
Y02645D02*
X0535Y02512D01*
Y02355D02*
Y02512D01*
Y02355D02*
X05475Y0223D01*
X04665Y02575D02*
X0469Y0255D01*
X04665Y02575D02*
Y04D01*
X0469Y04025D01*
X04752D01*
X04919Y04192D01*
X0542D01*
Y041425D02*
Y04192D01*
Y041425D02*
X05445Y041175D01*
X06Y02627D02*
Y0271D01*
X05818Y02445D02*
X06Y02627D01*
X057Y02445D02*
X05818D01*
X05611Y02356D02*
X057Y02445D01*
X05611Y02146D02*
Y02356D01*
X054805Y020155D02*
X05611Y02146D01*
X041415Y020155D02*
X054805D01*
X03644Y02513D02*
X041415Y020155D01*
X03644Y02513D02*
Y03195D01*
X03699Y0325D01*
X0375D01*
X03543Y03475D02*
X035603D01*
X03525Y03323D02*
X03543Y03341D01*
X05052Y02513D02*
X05235Y0233D01*
X056967Y027D02*
Y02704D01*
X05702D02*
Y03423D01*
X05667Y03458D02*
X05702Y03423D01*
X05667Y03458D02*
Y03819D01*
X05576Y0391D02*
X05667Y03819D01*
X05645Y041175D02*
X057615Y04234D01*
X05901D01*
X0601Y04125D01*
Y03059D02*
Y04125D01*
X05847Y02896D02*
X0601Y03059D01*
X05772Y02556D02*
X05808Y0252D01*
X05772Y02556D02*
Y0325D01*
X0587Y03348D01*
Y0384D01*
X0594Y0391D01*
X05688Y0398D02*
X05758Y0391D01*
X05536Y0398D02*
X05688D01*
X05506Y0395D02*
X05536Y0398D01*
X05506Y034895D02*
Y0395D01*
Y034895D02*
X05636Y033594D01*
X03681Y0365D02*
X0375D01*
X03656Y03625D02*
X03681Y0365D01*
X03656Y03299D02*
Y03625D01*
X03595Y03238D02*
X03656Y03299D01*
X035478Y03238D02*
X03595D01*
X0375Y0265D02*
X03809D01*
X03875Y02716D01*
Y03128D01*
X03983Y03236D01*
Y03568D01*
X0409Y03675D01*
X0331Y03366D02*
Y0347D01*
X03305Y03361D02*
X0331Y03366D01*
X03305Y03238D02*
Y03361D01*
X04915Y0231D02*
X04995Y0223D01*
X04915Y0231D02*
Y03445D01*
X0503Y0356D01*
X0475Y0265D02*
X04843D01*
X04857Y02664D01*
Y03943D01*
X04904Y0399D01*
X052175D02*
X05345Y041175D01*
X04115Y030659D02*
Y03371D01*
X0437Y03626D01*
Y036741D01*
X052695Y041175D02*
X05345D01*
X05142Y0399D02*
X052695Y041175D01*
X05142Y03857D02*
Y0399D01*
Y03857D02*
X05212Y03787D01*
Y0356D02*
Y03787D01*
X03167Y022616D02*
X032086Y0222D01*
X03167Y022616D02*
Y03153D01*
X031Y0322D02*
X03167Y03153D01*
X05475Y0233D02*
X05522Y02377D01*
Y032454D01*
X05636Y033594D01*
X053933Y027D02*
Y027423D01*
X05401Y0275D01*
Y03452D01*
X05303Y0355D02*
X05401Y03452D01*
X05303Y0355D02*
Y03819D01*
X05212Y0391D02*
X05303Y03819D01*
X0325Y0367D02*
X0331D01*
X03225Y03645D02*
X0325Y0367D01*
X03225Y025185D02*
Y03645D01*
Y025185D02*
X034448Y022987D01*
X02977Y0342D02*
X0303D01*
X02882Y03325D02*
X02977Y0342D01*
X02882Y023891D02*
Y03325D01*
Y023891D02*
X029724Y022987D01*
D44*
X02875Y02D02*
D03*
X0603Y01995D02*
D03*
X0601Y04295D02*
D03*
X02865Y0431D02*
D03*
X053351Y032603D02*
D03*
X05636Y032591D02*
D03*
Y033594D02*
D03*
D45*
X030787Y04051D02*
D03*
Y038542D02*
D03*
D46*
X035478Y03238D02*
D03*
Y0314D02*
D03*
Y03039D02*
D03*
X03305Y03238D02*
D03*
Y0314D02*
D03*
Y03039D02*
D03*
D47*
X0331Y0367D02*
D03*
Y0357D02*
D03*
Y0347D02*
D03*
X035603Y03675D02*
D03*
Y03575D02*
D03*
Y03475D02*
D03*
D48*
X0303Y0322D02*
D03*
D49*
Y0332D02*
D03*
Y0342D02*
D03*
D50*
X0499Y027D02*
D03*
X05345Y041175D02*
D03*
X052933Y027D02*
D03*
X055967D02*
D03*
X059Y0271D02*
D03*
D51*
X0509Y027D02*
D03*
X05445Y041175D02*
D03*
X05545D02*
D03*
X05645D02*
D03*
X033963Y0399D02*
D03*
X035337D02*
D03*
X0409Y03675D02*
D03*
Y034769D02*
D03*
X0437Y036741D02*
D03*
Y034759D02*
D03*
X053933Y027D02*
D03*
X056967D02*
D03*
X04115Y026541D02*
D03*
X06Y0271D02*
D03*
D52*
X05085Y040725D02*
D03*
X05905D02*
D03*
Y031625D02*
D03*
X05085D02*
D03*
D53*
X0503Y0356D02*
D03*
Y0391D02*
D03*
X05212Y0356D02*
D03*
Y0391D02*
D03*
X05576Y0356D02*
D03*
Y0391D02*
D03*
X05394Y0356D02*
D03*
Y0391D02*
D03*
X05758Y0356D02*
D03*
Y0391D02*
D03*
X0594Y0356D02*
D03*
Y0391D02*
D03*
D54*
X0475Y0365D02*
D03*
Y0335D02*
D03*
Y0345D02*
D03*
Y0355D02*
D03*
Y0325D02*
D03*
Y0315D02*
D03*
Y0285D02*
D03*
Y0275D02*
D03*
Y0265D02*
D03*
Y0255D02*
D03*
Y0395D02*
D03*
Y0375D02*
D03*
Y0295D02*
D03*
Y0305D02*
D03*
Y0385D02*
D03*
X0375Y0315D02*
D03*
Y0295D02*
D03*
Y0305D02*
D03*
Y0325D02*
D03*
Y0335D02*
D03*
Y0345D02*
D03*
Y0355D02*
D03*
Y0365D02*
D03*
Y0375D02*
D03*
Y0385D02*
D03*
Y0395D02*
D03*
Y0275D02*
D03*
Y0285D02*
D03*
Y0265D02*
D03*
D55*
Y0255D02*
D03*
D56*
X04995Y0223D02*
D03*
X05235D02*
D03*
X05475D02*
D03*
X05715D02*
D03*
D57*
X04995Y0233D02*
D03*
X05235D02*
D03*
X05475D02*
D03*
X05715D02*
D03*
D58*
X029724Y027791D02*
D03*
X034448Y022987D02*
D03*
X029724D02*
D03*
X032086Y0222D02*
D03*
X034448Y027791D02*
D03*
D59*
X05334Y033594D02*
D03*
D60*
X04115Y030659D02*
D03*
D61*
X04717Y04085D02*
D03*
X047387Y0223D02*
D03*
X044231Y022987D02*
D03*
X03413Y03158D02*
D03*
X03709Y04125D02*
D03*
X05217Y03397D02*
D03*
X03525Y03323D02*
D03*
X05052Y02513D02*
D03*
X05847Y02896D02*
D03*
X05808Y0252D02*
D03*
M02*
