G04*
G04 #@! TF.GenerationSoftware,Altium Limited,Altium Designer,21.3.2 (30)*
G04*
G04 Layer_Color=255*
%FSTAX24Y24*%
%MOIN*%
G70*
G04*
G04 #@! TF.SameCoordinates,FD8D8422-8178-4DE3-8D18-A0C0927E7843*
G04*
G04*
G04 #@! TF.FilePolarity,Positive*
G04*
G01*
G75*
%ADD44C,0.0600*%
%ADD45C,0.0984*%
%ADD46O,0.0750X0.0650*%
%ADD47O,0.1000X0.0660*%
%ADD48R,0.1000X0.0800*%
%ADD49O,0.1000X0.0800*%
%ADD50R,0.0787X0.0787*%
%ADD51C,0.0787*%
%ADD52C,0.0787*%
%ADD53C,0.0700*%
%ADD54O,0.0984X0.0787*%
%ADD55R,0.0984X0.0787*%
%ADD56R,0.0591X0.0591*%
%ADD57C,0.0591*%
%ADD58C,0.1100*%
%ADD59R,0.0600X0.0600*%
%ADD60R,0.0787X0.0787*%
D44*
X02875Y02D02*
D03*
X0603Y01995D02*
D03*
X0601Y04295D02*
D03*
X02865Y0431D02*
D03*
X053351Y032603D02*
D03*
X05636Y032591D02*
D03*
Y033594D02*
D03*
D45*
X030787Y04051D02*
D03*
Y038542D02*
D03*
D46*
X035478Y03238D02*
D03*
Y0314D02*
D03*
Y03039D02*
D03*
X03305Y03238D02*
D03*
Y0314D02*
D03*
Y03039D02*
D03*
D47*
X0331Y0367D02*
D03*
Y0357D02*
D03*
Y0347D02*
D03*
X035603Y03675D02*
D03*
Y03575D02*
D03*
Y03475D02*
D03*
D48*
X0303Y0322D02*
D03*
D49*
Y0332D02*
D03*
Y0342D02*
D03*
D50*
X0499Y027D02*
D03*
X05345Y041175D02*
D03*
X052933Y027D02*
D03*
X055967D02*
D03*
X059Y0271D02*
D03*
D51*
X0509Y027D02*
D03*
X05445Y041175D02*
D03*
X05545D02*
D03*
X05645D02*
D03*
X033963Y0399D02*
D03*
X035337D02*
D03*
X0409Y03675D02*
D03*
Y034769D02*
D03*
X0437Y036741D02*
D03*
Y034759D02*
D03*
X053933Y027D02*
D03*
X056967D02*
D03*
X04115Y026541D02*
D03*
X06Y0271D02*
D03*
D52*
X05085Y040725D02*
D03*
X05905D02*
D03*
Y031625D02*
D03*
X05085D02*
D03*
D53*
X0503Y0356D02*
D03*
Y0391D02*
D03*
X05212Y0356D02*
D03*
Y0391D02*
D03*
X05576Y0356D02*
D03*
Y0391D02*
D03*
X05394Y0356D02*
D03*
Y0391D02*
D03*
X05758Y0356D02*
D03*
Y0391D02*
D03*
X0594Y0356D02*
D03*
Y0391D02*
D03*
D54*
X0475Y0365D02*
D03*
Y0335D02*
D03*
Y0345D02*
D03*
Y0355D02*
D03*
Y0325D02*
D03*
Y0315D02*
D03*
Y0285D02*
D03*
Y0275D02*
D03*
Y0265D02*
D03*
Y0255D02*
D03*
Y0395D02*
D03*
Y0375D02*
D03*
Y0295D02*
D03*
Y0305D02*
D03*
Y0385D02*
D03*
X0375Y0315D02*
D03*
Y0295D02*
D03*
Y0305D02*
D03*
Y0325D02*
D03*
Y0335D02*
D03*
Y0345D02*
D03*
Y0355D02*
D03*
Y0365D02*
D03*
Y0375D02*
D03*
Y0385D02*
D03*
Y0395D02*
D03*
Y0275D02*
D03*
Y0285D02*
D03*
Y0265D02*
D03*
D55*
Y0255D02*
D03*
D56*
X04995Y0223D02*
D03*
X05235D02*
D03*
X05475D02*
D03*
X05715D02*
D03*
D57*
X04995Y0233D02*
D03*
X05235D02*
D03*
X05475D02*
D03*
X05715D02*
D03*
D58*
X029724Y027791D02*
D03*
X034448Y022987D02*
D03*
X029724D02*
D03*
X032086Y0222D02*
D03*
X034448Y027791D02*
D03*
D59*
X05334Y033594D02*
D03*
D60*
X04115Y030659D02*
D03*
M02*
